<?xml version="1.0" encoding="utf-8"?>
<!-- Generator: Adobe Illustrator 14.0.0, SVG Export Plug-In . SVG Version: 6.00 Build 43363)  -->
<!DOCTYPE svg PUBLIC "-//W3C//DTD SVG 1.1//EN" "http://www.w3.org/Graphics/SVG/1.1/DTD/svg11.dtd">
<svg version="1.1" id="Layer_1" xmlns="http://www.w3.org/2000/svg" xmlns:xlink="http://www.w3.org/1999/xlink" x="0px" y="0px"
	 width="192px" height="192px" viewBox="0 0 192 192" enable-background="new 0 0 192 192" xml:space="preserve">
<g id="fdab79a77e">
	
		<linearGradient id="SVGID_1_" gradientUnits="userSpaceOnUse" x1="205.3477" y1="-140.938" x2="361.0196" y2="-296.61" gradientTransform="matrix(1 0 0 -1 -189.6602 -119.96)">
		<stop  offset="0.0848" style="stop-color:#41AFE3"/>
		<stop  offset="0.2606" style="stop-color:#3C98D4"/>
		<stop  offset="1" style="stop-color:#08496C"/>
	</linearGradient>
	<path fill="url(#SVGID_1_)" d="M179.132,157.063c-5.756,0.002-11.51-0.021-17.266,0.026c-0.894,0.006-1.447-0.364-1.963-0.987
		c-7.077-8.562-14.146-17.134-21.246-25.676c-6.255-7.527-12.544-15.022-18.829-22.521c-0.384-0.456-0.674-1.03-1.464-1.304
		c-2.099,1.435-3.479,3.68-5.202,5.575c-2.709,2.987-5.197,6.175-7.931,9.14c-1.013,1.099-0.69,1.758,0.064,2.646
		c4.146,4.893,8.28,9.793,12.412,14.697c4.947,5.873,9.888,11.757,14.828,17.64c0.1,0.12,0.14,0.291,0.2,0.419
		c-0.138,0.455-0.49,0.415-0.817,0.412c-8.793-0.028-17.589-0.102-26.382-0.056c-1.535,0.009-2.561-0.441-3.519-1.617
		c-3.915-4.795-7.907-9.528-11.872-14.282c-0.173-0.206-0.367-0.394-0.6-0.641c-1.271,0.532-1.917,1.687-2.728,2.604
		c-3.845,4.343-7.631,8.738-11.405,13.144c-0.482,0.561-0.963,0.791-1.696,0.791c-9.406,0.005-18.813,0.037-28.219,0.057
		c-0.375,0.001-0.75-0.059-1.525-0.126c1.542-1.832,2.885-3.449,4.25-5.046c8.007-9.368,15.991-18.755,24.057-28.07
		c1.209-1.396,1.285-2.314,0.06-3.752c-6.27-7.369-12.455-14.812-18.637-22.255c-6.817-8.207-13.595-16.447-20.396-24.667
		c-1.797-2.172-3.604-4.336-5.442-6.474c-0.417-0.485-0.772-1.087-1.534-1.304c-0.677,0.546-0.396,1.32-0.396,1.976
		C25.918,94.14,25.921,120.87,25.92,147.6c0,2.712-0.026,5.423,0.013,8.135c0.015,0.983-0.338,1.404-1.342,1.399
		c-7.525-0.042-15.05-0.058-22.576-0.087c-0.213-0.001-0.426-0.069-0.612-0.1c-0.411-0.601-0.249-1.225-0.249-1.816
		c-0.007-39.29-0.007-78.583-0.006-117.875c0-2.327,0.004-2.331,2.378-2.331c8.578-0.001,17.156,0.019,25.734-0.022
		c1.266-0.007,2.157,0.341,2.992,1.344c6.36,7.644,12.774,15.245,19.178,22.853c6.938,8.243,13.885,16.476,20.824,24.718
		c1.459,1.732,2.898,3.48,4.421,5.313c4.302,5.118,8.531,10.146,12.693,15.095c0.985-0.096,1.28-0.779,1.683-1.253
		c3.861-4.555,7.669-9.153,11.542-13.696c0.836-0.979,0.872-1.711,0.038-2.724c-6.257-7.596-12.447-15.249-18.701-22.848
		c-7.378-8.963-14.8-17.891-22.199-26.838c-0.372-0.449-1.046-0.842-0.716-1.541c0.333-0.705,1.083-0.388,1.645-0.389
		c8.079-0.02,16.16,0.005,24.239-0.031c1.199-0.005,2.02,0.322,2.818,1.298c9.171,11.204,18.411,22.352,27.588,33.551
		c0.874,1.067,1.358,1.108,2.247,0.042c5.271-6.327,10.586-12.616,15.908-18.899c4.286-5.058,8.607-10.087,12.905-15.136
		c0.459-0.54,0.973-0.841,1.707-0.84c9.739,0.013,19.48,0.009,29.22,0.02c0.313,0,0.675-0.04,0.895,0.305
		c0.162,0.533-0.256,0.806-0.533,1.121c-7.173,8.112-14.363,16.208-21.522,24.332c-5.774,6.552-11.507,13.141-17.269,19.704
		c-2.078,2.366-4.157,4.73-6.295,7.042c-0.948,1.025-0.072,2.955-0.072,2.955l25.158,29.515l31.224,37.218"/>
</g>
</svg>
