<?xml version="1.0" encoding="utf-8"?>
<!-- Generator: Adobe Illustrator 14.0.0, SVG Export Plug-In . SVG Version: 6.00 Build 43363)  -->
<!DOCTYPE svg PUBLIC "-//W3C//DTD SVG 1.1//EN" "http://www.w3.org/Graphics/SVG/1.1/DTD/svg11.dtd">
<svg version="1.1" id="Layer_1" xmlns="http://www.w3.org/2000/svg" xmlns:xlink="http://www.w3.org/1999/xlink" x="0px" y="0px"
	 width="512px" height="512px" viewBox="0 0 512 512" enable-background="new 0 0 512 512" xml:space="preserve">
<g id="fdab79a77e">
	
		<linearGradient id="SVGID_1_" gradientUnits="userSpaceOnUse" x1="521.6523" y1="-402.5913" x2="935.7276" y2="11.4839" gradientTransform="matrix(1 0 0 1 -479.3203 459.0801)">
		<stop  offset="0.0848" style="stop-color:#42AFE2"/>
		<stop  offset="0.2606" style="stop-color:#3E98D4"/>
		<stop  offset="1" style="stop-color:#074A6D"/>
	</linearGradient>
	<path fill="url(#SVGID_1_)" d="M478.432,416.916c-15.395,0.008-30.797-0.049-46.192,0.071c-2.396,0.02-3.878-0.957-5.255-2.602
		c-18.936-22.562-37.849-45.149-56.846-67.664c-16.738-19.835-33.563-39.586-50.384-59.348c-1.025-1.201-1.798-2.717-3.914-3.438
		c-5.617,3.778-9.313,9.695-13.917,14.694c-7.25,7.869-13.911,16.271-21.226,24.082c-2.709,2.898-1.843,4.639,0.175,6.977
		c11.093,12.896,22.159,25.813,33.21,38.731c13.237,15.48,26.457,30.985,39.676,46.487c0.27,0.32,0.372,0.767,0.532,1.107
		c-0.364,1.197-1.308,1.094-2.184,1.086c-23.526-0.074-47.062-0.269-70.593-0.146c-4.104,0.017-6.849-1.168-9.41-4.267
		c-10.475-12.636-21.158-25.104-31.769-37.634c-0.462-0.549-0.981-1.041-1.604-1.693c-3.401,1.406-5.129,4.447-7.3,6.865
		c-10.289,11.443-20.416,23.028-30.516,34.64c-1.289,1.478-2.577,2.089-4.535,2.089c-25.171,0.011-50.34,0.089-75.506,0.146
		c-1.005,0.004-2.009-0.155-4.084-0.333c4.128-4.829,7.719-9.093,11.373-13.297c21.422-24.687,42.789-49.424,64.371-73.977
		c3.236-3.677,3.436-6.097,0.156-9.893c-16.772-19.415-33.325-39.029-49.863-58.643c-18.244-21.63-36.38-43.342-54.579-65.009
		c-4.81-5.724-9.646-11.431-14.56-17.064c-1.117-1.273-2.066-2.866-4.108-3.434c-1.811,1.439-1.056,3.477-1.059,5.204
		c-0.041,70.442-0.034,140.886-0.038,211.328c0,7.148-0.069,14.293,0.038,21.439c0.038,2.592-0.908,3.697-3.59,3.688
		c-20.14-0.113-40.272-0.153-60.407-0.228c-0.573-0.004-1.142-0.184-1.643-0.266c-1.095-1.584-0.661-3.231-0.661-4.785
		c-0.024-103.55-0.021-207.099-0.019-310.644c0-6.135,0.012-6.141,6.365-6.144c22.95-0.003,45.905,0.05,68.855-0.059
		c3.389-0.016,5.777,0.899,8.006,3.544c17.019,20.144,34.181,40.179,51.313,60.227c18.563,21.721,37.155,43.419,55.722,65.142
		c3.903,4.562,7.752,9.168,11.828,13.998c11.51,13.488,22.824,26.736,33.961,39.785c2.639-0.258,3.428-2.058,4.503-3.309
		c10.332-12.003,20.524-24.121,30.885-36.089c2.236-2.581,2.33-4.511,0.099-7.179c-16.741-20.018-33.301-40.185-50.038-60.218
		c-19.74-23.618-39.602-47.147-59.397-70.729c-0.993-1.179-2.798-2.216-1.918-4.057c0.896-1.86,2.902-1.021,4.401-1.025
		c21.619-0.053,43.239,0.013,64.855-0.081c3.208-0.016,5.406,0.846,7.541,3.417c24.541,29.531,49.264,58.911,73.817,88.424
		c2.34,2.81,3.641,2.918,6.019,0.108c14.101-16.671,28.319-33.247,42.565-49.806c11.469-13.331,23.029-26.583,34.522-39.89
		c1.229-1.417,2.604-2.214,4.573-2.214c26.063,0.035,52.126,0.022,78.185,0.054c0.833,0,1.803-0.106,2.385,0.802
		c0.438,1.404-0.678,2.123-1.421,2.957c-19.194,21.378-38.432,42.714-57.587,64.122c-15.447,17.268-30.787,34.635-46.206,51.928
		c-5.559,6.235-11.122,12.466-16.844,18.558c-2.536,2.703-0.188,7.788-0.188,7.788l67.315,77.786l83.543,98.081"/>
</g>
</svg>
