<?xml version="1.0" encoding="utf-8"?>
<!-- Generator: Adobe Illustrator 14.0.0, SVG Export Plug-In . SVG Version: 6.00 Build 43363)  -->
<!DOCTYPE svg PUBLIC "-//W3C//DTD SVG 1.1//EN" "http://www.w3.org/Graphics/SVG/1.1/DTD/svg11.dtd">
<svg version="1.1" id="Layer_1" xmlns="http://www.w3.org/2000/svg" xmlns:xlink="http://www.w3.org/1999/xlink" x="0px" y="0px"
	 width="16px" height="16px" viewBox="0 0 16 16" enable-background="new 0 0 16 16" xml:space="preserve">
<g id="fdab79a77e">
	
		<linearGradient id="SVGID_1_" gradientUnits="userSpaceOnUse" x1="190.8887" y1="-297.6338" x2="204.0152" y2="-310.7603" gradientTransform="matrix(1 0 0 -1 -189.6602 -295.96)">
		<stop  offset="0.0848" style="stop-color:#41AFE3"/>
		<stop  offset="0.2606" style="stop-color:#3C98D4"/>
		<stop  offset="1" style="stop-color:#08496C"/>
	</linearGradient>
	<path fill="url(#SVGID_1_)" d="M15.009,13.149c-0.484,0.001-0.97-0.001-1.455,0.003c-0.075,0-0.122-0.031-0.165-0.084
		c-0.598-0.722-1.193-1.444-1.792-2.165c-0.527-0.635-1.058-1.267-1.587-1.899c-0.033-0.039-0.058-0.086-0.124-0.11
		c-0.177,0.122-0.293,0.31-0.438,0.47c-0.229,0.253-0.438,0.521-0.668,0.771c-0.085,0.093-0.058,0.147,0.005,0.223
		c0.35,0.412,0.698,0.825,1.046,1.239c0.417,0.495,0.834,0.991,1.251,1.487c0.008,0.011,0.012,0.024,0.017,0.035
		c-0.012,0.038-0.041,0.035-0.068,0.035c-0.742-0.003-1.484-0.009-2.225-0.005c-0.129,0.001-0.215-0.037-0.296-0.136
		c-0.331-0.404-0.667-0.804-1.001-1.205c-0.014-0.018-0.031-0.033-0.05-0.054c-0.108,0.045-0.162,0.142-0.23,0.22
		c-0.324,0.365-0.644,0.736-0.962,1.108c-0.041,0.047-0.081,0.066-0.143,0.066c-0.793,0-1.586,0.003-2.379,0.005
		c-0.032,0-0.063-0.005-0.128-0.011c0.13-0.154,0.243-0.291,0.358-0.426C4.646,11.929,5.32,11.138,6,10.353
		c0.102-0.118,0.108-0.195,0.005-0.316c-0.529-0.621-1.051-1.25-1.572-1.878c-0.575-0.692-1.146-1.387-1.72-2.08
		C2.563,5.895,2.41,5.713,2.255,5.532C2.22,5.492,2.19,5.441,2.125,5.423C2.068,5.468,2.092,5.534,2.092,5.589
		c-0.001,2.254-0.001,4.508-0.001,6.762c0,0.229-0.002,0.457,0.001,0.686c0.001,0.083-0.029,0.119-0.113,0.118
		c-0.634-0.003-1.269-0.005-1.903-0.007c-0.018,0-0.036-0.006-0.052-0.008c-0.034-0.052-0.021-0.104-0.021-0.154
		c0-3.313,0-6.626,0-9.94c0-0.196,0-0.196,0.2-0.197c0.724,0,1.447,0.002,2.17-0.001c0.107-0.001,0.182,0.029,0.252,0.113
		c0.537,0.645,1.078,1.286,1.618,1.927c0.585,0.695,1.17,1.389,1.756,2.084C6.121,7.119,6.243,7.266,6.371,7.42
		c0.363,0.432,0.719,0.855,1.07,1.273c0.083-0.008,0.107-0.065,0.142-0.105c0.326-0.385,0.646-0.772,0.973-1.155
		C8.627,7.35,8.63,7.289,8.56,7.203C8.032,6.563,7.51,5.917,6.983,5.276C6.361,4.521,5.734,3.768,5.111,3.014
		C5.08,2.976,5.022,2.942,5.05,2.884c0.028-0.06,0.091-0.033,0.138-0.033C5.87,2.849,6.552,2.852,7.233,2.848
		c0.101,0,0.17,0.027,0.237,0.11c0.773,0.944,1.552,1.884,2.326,2.829C9.871,5.877,9.911,5.88,9.985,5.79
		c0.445-0.533,0.894-1.063,1.342-1.593c0.361-0.427,0.726-0.851,1.088-1.277c0.04-0.045,0.082-0.07,0.144-0.07
		c0.822,0.001,1.644,0.001,2.465,0.002c0.026,0,0.057-0.004,0.075,0.025c0.014,0.045-0.021,0.068-0.045,0.094
		c-0.604,0.684-1.211,1.367-1.814,2.052c-0.487,0.553-0.971,1.108-1.456,1.662c-0.176,0.199-0.351,0.398-0.531,0.593
		c-0.08,0.086-0.006,0.25-0.006,0.25l2.121,2.49L16,13.155"/>
</g>
</svg>
