<?xml version="1.0" encoding="utf-8"?>
<!-- Generator: Adobe Illustrator 14.0.0, SVG Export Plug-In . SVG Version: 6.00 Build 43363)  -->
<!DOCTYPE svg PUBLIC "-//W3C//DTD SVG 1.1//EN" "http://www.w3.org/Graphics/SVG/1.1/DTD/svg11.dtd">
<svg version="1.1" id="Layer_1" xmlns="http://www.w3.org/2000/svg" xmlns:xlink="http://www.w3.org/1999/xlink" x="0px" y="0px"
	 width="32px" height="32px" viewBox="0 0 32 32" enable-background="new 0 0 32 32" xml:space="preserve">
<g id="fdab79a77e">
	
		<linearGradient id="SVGID_1_" gradientUnits="userSpaceOnUse" x1="192.3135" y1="-283.4932" x2="218.183" y2="-309.3627" gradientTransform="matrix(1 0 0 -1 -189.6602 -279.96)">
		<stop  offset="0.0848" style="stop-color:#41AFE3"/>
		<stop  offset="0.2606" style="stop-color:#3C98D4"/>
		<stop  offset="1" style="stop-color:#08496C"/>
	</linearGradient>
	<path fill="url(#SVGID_1_)" d="M29.814,26.147c-0.956,0.001-1.912-0.003-2.869,0.005c-0.147,0-0.24-0.061-0.325-0.164
		c-1.177-1.423-2.352-2.848-3.531-4.268c-1.039-1.251-2.084-2.496-3.128-3.742c-0.065-0.076-0.113-0.171-0.244-0.216
		c-0.349,0.237-0.578,0.61-0.864,0.926c-0.45,0.497-0.864,1.026-1.318,1.519c-0.168,0.184-0.114,0.292,0.011,0.439
		c0.689,0.813,1.376,1.627,2.063,2.442c0.822,0.977,1.644,1.954,2.464,2.932c0.017,0.021,0.023,0.048,0.034,0.07
		c-0.023,0.074-0.082,0.068-0.136,0.068c-1.462-0.006-2.924-0.018-4.385-0.011c-0.255,0.003-0.425-0.072-0.584-0.268
		c-0.651-0.797-1.314-1.583-1.974-2.374c-0.028-0.033-0.061-0.065-0.1-0.106c-0.211,0.089-0.318,0.28-0.454,0.434
		c-0.639,0.721-1.268,1.452-1.895,2.184c-0.08,0.094-0.16,0.131-0.282,0.131c-1.563,0.001-3.125,0.007-4.689,0.011
		c-0.063,0-0.125-0.011-0.253-0.021c0.256-0.305,0.479-0.573,0.706-0.838c1.331-1.558,2.658-3.117,3.998-4.665
		c0.201-0.231,0.213-0.385,0.01-0.623c-1.042-1.225-2.07-2.462-3.098-3.699c-1.133-1.364-2.259-2.733-3.389-4.1
		c-0.299-0.361-0.599-0.72-0.904-1.076c-0.069-0.081-0.128-0.181-0.255-0.216c-0.113,0.09-0.066,0.219-0.066,0.328
		c-0.002,4.442-0.002,8.884-0.002,13.326c0,0.45-0.004,0.9,0.002,1.352c0.002,0.164-0.056,0.234-0.223,0.232
		c-1.25-0.007-2.501-0.01-3.751-0.015c-0.036,0-0.071-0.012-0.102-0.016c-0.068-0.101-0.041-0.204-0.041-0.303
		C0.237,19.297,0.237,12.768,0.238,6.238c0-0.386,0.001-0.387,0.395-0.388c1.426,0,2.851,0.004,4.277-0.003
		C5.12,5.846,5.268,5.903,5.406,6.07c1.057,1.271,2.123,2.533,3.188,3.798c1.153,1.37,2.307,2.738,3.46,4.107
		c0.243,0.288,0.481,0.578,0.735,0.883c0.715,0.851,1.417,1.686,2.109,2.509c0.164-0.016,0.213-0.13,0.28-0.208
		c0.642-0.757,1.274-1.521,1.918-2.276c0.14-0.163,0.146-0.285,0.007-0.453c-1.04-1.262-2.069-2.534-3.108-3.797
		c-1.227-1.489-2.46-2.973-3.689-4.459c-0.062-0.075-0.174-0.141-0.119-0.256c0.055-0.117,0.18-0.064,0.272-0.065
		c1.343-0.003,2.686,0.001,4.029-0.004c0.199-0.001,0.335,0.053,0.468,0.215c1.524,1.862,3.06,3.714,4.584,5.576
		c0.146,0.177,0.227,0.184,0.374,0.006c0.876-1.051,1.759-2.096,2.644-3.14c0.713-0.84,1.431-1.677,2.145-2.516
		C24.779,5.9,24.864,5.85,24.985,5.85c1.619,0.002,3.238,0.001,4.856,0.003c0.052,0,0.112-0.007,0.148,0.05
		c0.027,0.088-0.042,0.134-0.088,0.186c-1.193,1.348-2.387,2.694-3.577,4.044c-0.96,1.089-1.912,2.184-2.87,3.274
		c-0.345,0.393-0.69,0.786-1.046,1.17c-0.157,0.17-0.012,0.492-0.012,0.492l4.181,4.905l5.188,6.185"/>
</g>
</svg>
