<?xml version="1.0" encoding="utf-8"?>
<!-- Generator: Adobe Illustrator 14.0.0, SVG Export Plug-In . SVG Version: 6.00 Build 43363)  -->
<!DOCTYPE svg PUBLIC "-//W3C//DTD SVG 1.1//EN" "http://www.w3.org/Graphics/SVG/1.1/DTD/svg11.dtd">
<svg version="1.1" id="Layer_1" xmlns="http://www.w3.org/2000/svg" xmlns:xlink="http://www.w3.org/1999/xlink" x="0px" y="0px"
	 width="48px" height="48px" viewBox="0 0 48 48" enable-background="new 0 0 48 48" xml:space="preserve">
<g id="fdab79a77e">
	
		<linearGradient id="SVGID_1_" gradientUnits="userSpaceOnUse" x1="193.9316" y1="-269.5303" x2="232.173" y2="-307.7716" gradientTransform="matrix(1 0 0 -1 -189.6602 -263.96)">
		<stop  offset="0.0848" style="stop-color:#41AFE3"/>
		<stop  offset="0.2606" style="stop-color:#3C98D4"/>
		<stop  offset="1" style="stop-color:#08496C"/>
	</linearGradient>
	<path fill="url(#SVGID_1_)" d="M44.421,39c-1.413,0.001-2.827-0.005-4.241,0.007c-0.219,0.001-0.355-0.089-0.481-0.242
		c-1.739-2.104-3.476-4.209-5.22-6.308c-1.536-1.85-3.081-3.69-4.625-5.532c-0.095-0.112-0.166-0.253-0.36-0.32
		c-0.515,0.353-0.854,0.903-1.277,1.369c-0.665,0.734-1.276,1.517-1.948,2.245c-0.249,0.271-0.17,0.432,0.016,0.65
		c1.019,1.202,2.034,2.405,3.049,3.61c1.216,1.442,2.43,2.889,3.643,4.333c0.024,0.03,0.034,0.071,0.05,0.104
		c-0.034,0.111-0.121,0.102-0.201,0.102c-2.16-0.008-4.32-0.025-6.48-0.015c-0.377,0.003-0.629-0.108-0.864-0.396
		c-0.962-1.178-1.942-2.341-2.917-3.509c-0.042-0.051-0.09-0.097-0.147-0.157c-0.313,0.131-0.471,0.414-0.67,0.64
		c-0.944,1.066-1.875,2.146-2.802,3.229c-0.118,0.138-0.236,0.194-0.417,0.194c-2.311,0.001-4.621,0.009-6.932,0.015
		c-0.092,0-0.184-0.016-0.375-0.031c0.379-0.45,0.708-0.848,1.044-1.24c1.967-2.301,3.929-4.606,5.91-6.896
		c0.297-0.343,0.315-0.568,0.015-0.921c-1.541-1.811-3.06-3.639-4.579-5.468c-1.674-2.016-3.34-4.04-5.01-6.06
		c-0.442-0.534-0.886-1.065-1.337-1.59c-0.103-0.119-0.19-0.267-0.377-0.32c-0.167,0.134-0.097,0.324-0.098,0.485
		c-0.003,6.566-0.003,13.132-0.003,19.699c0,0.666-0.006,1.332,0.003,1.998c0.003,0.242-0.083,0.346-0.33,0.344
		c-1.849-0.01-3.697-0.014-5.546-0.021c-0.052-0.001-0.104-0.018-0.15-0.024c-0.101-0.148-0.061-0.302-0.061-0.447
		C0.699,28.874,0.699,19.222,0.699,9.569c0-0.571,0.001-0.572,0.584-0.573c2.107,0,4.215,0.005,6.322-0.005
		C7.916,8.99,8.135,9.075,8.34,9.322c1.563,1.877,3.138,3.745,4.711,5.614c1.704,2.025,3.411,4.047,5.115,6.072
		c0.359,0.426,0.712,0.855,1.086,1.305c1.057,1.257,2.095,2.492,3.118,3.708c0.242-0.023,0.314-0.191,0.414-0.308
		c0.948-1.119,1.884-2.249,2.835-3.365c0.206-0.24,0.215-0.42,0.01-0.669c-1.537-1.866-3.058-3.746-4.594-5.613
		c-1.813-2.202-3.636-4.395-5.453-6.593c-0.091-0.11-0.257-0.207-0.176-0.378C15.487,8.922,15.672,9,15.809,9
		c1.985-0.005,3.97,0.001,5.955-0.007c0.294-0.001,0.496,0.079,0.692,0.319c2.253,2.752,4.522,5.491,6.777,8.242
		c0.215,0.262,0.334,0.272,0.552,0.01c1.295-1.554,2.601-3.099,3.908-4.643c1.053-1.242,2.114-2.478,3.17-3.718
		c0.113-0.132,0.239-0.207,0.419-0.206c2.393,0.003,4.786,0.002,7.179,0.005c0.076,0,0.166-0.01,0.22,0.075
		c0.04,0.131-0.063,0.198-0.131,0.275c-1.763,1.993-3.528,3.981-5.287,5.977c-1.419,1.609-2.827,3.228-4.242,4.84
		c-0.511,0.582-1.021,1.162-1.547,1.73c-0.232,0.252-0.018,0.726-0.018,0.726l6.181,7.25l7.67,9.143"/>
</g>
</svg>
