<?xml version="1.0" encoding="utf-8"?>
<!-- Generator: Adobe Illustrator 14.0.0, SVG Export Plug-In . SVG Version: 6.00 Build 43363)  -->
<!DOCTYPE svg PUBLIC "-//W3C//DTD SVG 1.1//EN" "http://www.w3.org/Graphics/SVG/1.1/DTD/svg11.dtd">
<svg version="1.1" id="Layer_1" xmlns="http://www.w3.org/2000/svg" xmlns:xlink="http://www.w3.org/1999/xlink" x="0px" y="0px"
	 width="512px" height="512px" viewBox="0 0 512 512" enable-background="new 0 0 512 512" xml:space="preserve">
<g>
	<g>
		
			<linearGradient id="SVGID_1_" gradientUnits="userSpaceOnUse" x1="365.1113" y1="24.5908" x2="726.2112" y2="-336.5091" gradientTransform="matrix(1 0 0 -1 -289.6602 100.04)">
			<stop  offset="0" style="stop-color:#49A9DF"/>
			<stop  offset="1" style="stop-color:#05496C"/>
		</linearGradient>
		<path fill="url(#SVGID_1_)" d="M485.244,336.994h14.673c-34.373,100.183-130.731,172.512-243.915,172.512
			c-113.189,0-209.542-72.329-243.919-172.512h14.674c33.794,92.528,123.803,158.864,229.245,158.864
			C361.442,495.858,451.45,429.522,485.244,336.994z M256.002,16.143c105.44,0,195.448,66.335,229.242,158.862h14.673
			C465.544,74.823,369.186,2.494,256.002,2.494c-113.189,0-209.542,72.329-243.919,172.511h14.674
			C60.551,82.479,150.558,16.143,256.002,16.143z M256.002,484.122c-98.766,0-183.301-61.207-216.526-147.128H34.89
			C68.339,425.29,154.826,488.34,256.002,488.34c101.173,0,187.658-63.05,221.11-151.346h-4.588
			C439.297,422.915,354.763,484.122,256.002,484.122z M256.002,23.66c-101.176,0-187.663,63.049-221.112,151.345h4.586
			C72.701,89.083,157.236,27.876,256.002,27.876c98.761,0,183.295,61.207,216.522,147.129h4.585
			C443.66,86.709,357.175,23.66,256.002,23.66z"/>
	</g>
	<g>
		<path fill="#020202" d="M395.127,313.431c-9.53,0.004-19.065-0.029-28.597,0.042c-1.485,0.012-2.401-0.589-3.255-1.608
			c-11.724-13.969-23.43-27.951-35.19-41.89c-10.362-12.277-20.778-24.505-31.191-36.741c-0.634-0.744-1.112-1.68-2.425-2.126
			c-3.476,2.338-5.764,6-8.613,9.097c-4.488,4.872-8.612,10.073-13.141,14.906c-1.677,1.793-1.141,2.872,0.108,4.321
			c6.865,7.981,13.718,15.976,20.558,23.976c8.196,9.586,16.383,19.181,24.563,28.779c0.168,0.198,0.235,0.477,0.331,0.684
			c-0.226,0.743-0.81,0.679-1.352,0.677c-14.564-0.049-29.133-0.169-43.702-0.091c-2.543,0.011-4.24-0.725-5.828-2.645
			c-6.482-7.823-13.096-15.543-19.665-23.295c-0.286-0.34-0.607-0.645-0.993-1.05c-2.105,0.872-3.177,2.755-4.521,4.25
			c-6.367,7.086-12.637,14.258-18.892,21.444c-0.796,0.915-1.594,1.293-2.808,1.293c-15.581,0.008-31.162,0.058-46.744,0.091
			c-0.62,0.002-1.242-0.097-2.526-0.204c2.556-2.992,4.778-5.632,7.041-8.234c13.262-15.283,26.487-30.597,39.851-45.795
			c2.001-2.278,2.126-3.774,0.097-6.126c-10.384-12.02-20.631-24.16-30.869-36.304c-11.294-13.39-22.521-26.832-33.786-40.244
			c-2.978-3.543-5.972-7.076-9.016-10.564c-0.689-0.788-1.277-1.774-2.541-2.127c-1.121,0.891-0.655,2.153-0.655,3.224
			c-0.025,43.607-0.021,87.217-0.023,130.828c0,4.421-0.043,8.849,0.021,13.271c0.025,1.604-0.561,2.289-2.223,2.283
			c-12.466-0.07-24.932-0.093-37.395-0.144c-0.354-0.002-0.709-0.111-1.017-0.162c-0.678-0.979-0.411-1.999-0.411-2.961
			c-0.013-64.106-0.012-128.209-0.01-192.312c0-3.798,0.008-3.804,3.938-3.804c14.21-0.002,28.419,0.031,42.627-0.037
			c2.098-0.01,3.574,0.557,4.956,2.194c10.538,12.471,21.158,24.872,31.767,37.285c11.494,13.447,23.002,26.88,34.496,40.326
			c2.416,2.826,4.8,5.678,7.322,8.668c7.128,8.35,14.13,16.551,21.026,24.629c1.632-0.163,2.12-1.273,2.788-2.05
			c6.396-7.43,12.704-14.93,19.12-22.342c1.382-1.596,1.44-2.791,0.061-4.442c-10.365-12.395-20.617-24.881-30.977-37.28
			c-12.223-14.623-24.517-29.188-36.771-43.787c-0.617-0.73-1.734-1.372-1.189-2.512c0.556-1.151,1.799-0.632,2.727-0.634
			c13.384-0.033,26.767,0.008,40.148-0.05c1.988-0.008,3.347,0.524,4.67,2.116c15.19,18.282,30.496,36.471,45.698,54.741
			c1.448,1.739,2.252,1.807,3.724,0.067c8.729-10.323,17.532-20.583,26.352-30.833c7.1-8.252,14.257-16.457,21.372-24.695
			c0.761-0.877,1.612-1.373,2.831-1.371c16.135,0.021,32.27,0.014,48.4,0.033c0.52,0,1.118-0.066,1.481,0.497
			c0.268,0.87-0.422,1.314-0.883,1.829c-11.881,13.236-23.792,26.445-35.647,39.697c-9.566,10.689-19.063,21.44-28.608,32.148
			c-3.439,3.86-6.886,7.718-10.428,11.489c-1.568,1.673-0.116,4.819-0.116,4.819l41.676,48.157l51.717,60.717"/>
		<path fill="#074A6D" d="M154.966,388.545c-5.354,0.881-8.362-1.122-11.144-5.524c-8.51-13.461-17.654-26.542-26.546-39.77
			c-0.304-0.454-0.505-0.984-1.266-1.154c-0.752,0.731-0.41,1.704-0.412,2.556c-0.025,13.39-0.018,26.782-0.018,40.171
			c0,3.721-0.004,3.722-3.956,3.722c-2.972,0-5.948-0.065-8.919,0.026c-1.707,0.055-2.444-0.428-2.44-2.222
			c0.044-21.333,0.042-42.664,0.002-63.997c-0.004-1.701,0.568-2.343,2.361-2.313c4.98,0.085,9.968,0.113,14.947-0.009
			c1.856-0.045,2.949,0.62,3.906,2.073c6.61,10.022,13.275,20.01,19.932,30c2.568,3.855,5.161,7.688,8.08,12.032
			c0-1.222,0-1.935,0-2.648c0-12.846,0.045-25.692-0.044-38.538c-0.018-2.211,0.622-3.05,2.987-2.921
			c3.286,0.175,6.591,0.096,9.883,0.013c1.688-0.038,2.467,0.429,2.463,2.228c-0.046,21.334-0.044,42.666-0.006,63.997
			c0.004,1.679-0.515,2.397-2.338,2.31C160.033,388.459,157.617,388.548,154.966,388.545z"/>
		<path fill="#074A6D" d="M378.94,343.04c0.081,5.669-0.75,4.964,4.805,4.987c8.438,0.034,16.876,0.078,25.316-0.031
			c2.145-0.025,2.826,0.644,2.717,2.675c-0.15,2.795-0.134,5.61-0.007,8.405c0.085,1.864-0.646,2.404-2.51,2.39
			c-9.162-0.071-18.324,0.03-27.484-0.071c-2.19-0.025-3.021,0.541-2.88,2.748c0.185,2.868,0.144,5.761,0.009,8.633
			c-0.087,1.877,0.618,2.407,2.501,2.396c10.207-0.072,20.414,0.034,30.616-0.08c2.381-0.024,3.328,0.553,3.141,2.986
			c-0.215,2.786-0.097,5.602-0.031,8.403c0.035,1.468-0.484,2.087-2.078,2.084c-15.914-0.036-31.824-0.039-47.732,0.003
			c-1.733,0.004-2.172-0.692-2.169-2.237c0.033-21.328,0.035-42.66-0.008-63.989c-0.003-1.697,0.546-2.307,2.352-2.301
			c15.588,0.058,31.181,0.048,46.77,0.018c1.573-0.002,2.394,0.39,2.351,2.089c-0.082,3.342-0.067,6.692-0.018,10.04
			c0.021,1.313-0.511,1.76-1.854,1.754c-9.8-0.029-19.598-0.006-29.398,0c-0.724,0-1.449,0.029-2.168-0.025
			c-1.602-0.121-2.36,0.428-2.267,2.126C379.037,338.293,378.943,340.553,378.94,343.04z"/>
		<path fill="#074A6D" d="M230.175,375.143c3.552,0.032,3.556,0.032,3.563,3.176c0.008,2.725-0.042,5.453,0.019,8.177
			c0.031,1.47-0.52,2.072-2.104,2.068c-15.917-0.038-31.834-0.05-47.749,0.008c-2.28,0.009-2.097-1.328-2.097-2.764
			c0.007-17.677,0.002-35.354,0-53.027c0-3.423,0.069-6.854-0.024-10.278c-0.049-1.747,0.449-2.482,2.43-2.473
			c15.352,0.066,30.704,0.056,46.057,0.011c1.724-0.004,2.497,0.498,2.45,2.261c-0.083,3.188-0.071,6.384,0.012,9.576
			c0.041,1.61-0.535,2.138-2.244,2.13c-9.96-0.057-19.923,0.438-29.878-0.125c-2.47-0.138-3.25,0.664-3.08,3.033
			c0.209,2.945,0.132,5.917,0.021,8.872c-0.067,1.75,0.598,2.291,2.371,2.278c9.082-0.063,18.167,0.024,27.249-0.065
			c2.073-0.018,2.889,0.531,2.761,2.632c-0.168,2.794-0.135,5.607-0.005,8.406c0.086,1.851-0.615,2.438-2.493,2.426
			c-9.004-0.063-18.007,0.036-27.008-0.063c-2.173-0.023-3.034,0.509-2.89,2.732c0.187,2.87,0.144,5.763,0.012,8.639
			c-0.087,1.861,0.597,2.415,2.493,2.402C210.006,375.098,219.972,375.14,230.175,375.143z"/>
		<path fill="#074A6D" d="M267.655,322.669c4.254,6.029,8.397,11.921,12.704,18.044c2.713-2.647,4.224-5.679,6.191-8.376
			c2.503-3.426,4.93-6.906,7.276-10.436c0.885-1.329,1.896-1.896,3.544-1.865c4.658,0.089,9.321,0.023,13.986,0.052
			c0.842,0.005,1.782-0.256,2.721,0.745c-1.757,2.382-3.52,4.835-5.338,7.247c-5.826,7.716-11.635,15.443-17.542,23.096
			c-1.143,1.483-0.983,2.486,0.113,3.882c7.876,10.018,15.683,20.086,23.49,30.158c0.658,0.849,1.499,1.623,1.707,2.765
			c-0.663,0.89-1.627,0.541-2.442,0.549c-4.662,0.035-9.326-0.058-13.986,0.054c-1.807,0.043-2.897-0.519-3.932-1.991
			c-4.831-6.868-9.807-13.649-14.739-20.456c-0.268-0.372-0.61-0.694-1.1-1.242c-4.142,5.872-8.635,11.398-12.129,17.46
			c-2.895,5.028-6.458,7.063-12.3,6.281c-3.43-0.457-6.978-0.083-10.426-0.083c-0.235-1.453,0.6-2.103,1.142-2.816
			c7.828-10.334,15.66-20.672,23.583-30.94c1.022-1.322,0.945-2.162-0.016-3.411c-7.325-9.555-14.589-19.15-21.873-28.73
			c-0.465-0.613-1.14-1.12-1.052-2.054c0.731-0.836,1.763-0.515,2.674-0.52c4.18-0.036,8.364,0.106,12.536-0.055
			C264.761,319.933,266.552,320.342,267.655,322.669z"/>
		<path fill="#074A6D" d="M345.649,322.109c0.004,21.234,0.008,42.246,0.008,63.258c0,3.173-0.012,3.174-3.313,3.178
			c-3.375,0.004-6.755-0.109-10.119,0.039c-2.223,0.1-2.872-0.662-2.86-2.784c0.077-16.501,0.043-32.998,0.043-49.494
			c0-4.672,0.042-9.34-0.016-14.007c-0.016-1.517,0.386-2.301,2.15-2.265c4.017,0.087,8.034,0.054,12.05,0.014
			C344.946,320.036,345.786,320.4,345.649,322.109z"/>
		<g id="fdab79a77e">
			
				<linearGradient id="SVGID_2_" gradientUnits="userSpaceOnUse" x1="604.4688" y1="-368.7793" x2="860.8123" y2="-112.4359" gradientTransform="matrix(1 0 0 1 -479.3203 459.0801)">
				<stop  offset="0.0848" style="stop-color:#42AFE2"/>
				<stop  offset="0.2606" style="stop-color:#3E98D4"/>
				<stop  offset="1" style="stop-color:#074A6D"/>
			</linearGradient>
			<path fill="url(#SVGID_2_)" d="M395.127,313.433c-9.53,0.004-19.065-0.031-28.597,0.044c-1.482,0.012-2.4-0.593-3.253-1.61
				c-11.723-13.968-23.432-27.951-35.192-41.89c-10.362-12.279-20.778-24.507-31.191-36.741c-0.634-0.744-1.112-1.682-2.423-2.128
				c-3.478,2.338-5.766,6.002-8.615,9.097c-4.488,4.872-8.612,10.073-13.141,14.908c-1.677,1.795-1.141,2.872,0.108,4.319
				c6.867,7.983,13.718,15.979,20.56,23.978c8.194,9.584,16.379,19.183,24.563,28.779c0.166,0.198,0.229,0.475,0.329,0.686
				c-0.226,0.741-0.81,0.677-1.352,0.673c-14.564-0.047-29.135-0.167-43.702-0.091c-2.541,0.011-4.24-0.723-5.826-2.641
				c-6.484-7.823-13.098-15.542-19.667-23.299c-0.286-0.34-0.607-0.645-0.993-1.048c-2.105,0.87-3.175,2.753-4.52,4.25
				c-6.369,7.084-12.639,14.256-18.892,21.444c-0.798,0.915-1.596,1.293-2.808,1.293c-15.583,0.007-31.164,0.056-46.744,0.091
				c-0.622,0.002-1.244-0.097-2.528-0.206c2.556-2.99,4.778-5.63,7.041-8.232c13.262-15.283,26.489-30.597,39.851-45.797
				c2.003-2.276,2.127-3.774,0.097-6.125c-10.384-12.02-20.631-24.162-30.869-36.304c-11.294-13.39-22.521-26.832-33.788-40.246
				c-2.978-3.543-5.972-7.076-9.014-10.564c-0.691-0.788-1.279-1.774-2.543-2.125c-1.121,0.891-0.653,2.152-0.655,3.222
				c-0.025,43.609-0.021,87.219-0.023,130.828c0,4.425-0.043,8.849,0.023,13.272c0.023,1.604-0.563,2.289-2.223,2.283
				c-12.468-0.07-24.932-0.095-37.396-0.142c-0.354-0.002-0.707-0.113-1.017-0.164c-0.678-0.98-0.409-2.001-0.409-2.963
				c-0.015-64.104-0.013-128.209-0.012-192.312c0-3.798,0.008-3.802,3.94-3.804c14.208-0.002,28.419,0.031,42.627-0.037
				c2.098-0.01,3.576,0.557,4.956,2.194c10.536,12.471,21.16,24.874,31.767,37.285c11.492,13.447,23.002,26.88,34.496,40.328
				c2.416,2.824,4.799,5.676,7.322,8.666c7.126,8.35,14.13,16.551,21.024,24.629c1.634-0.16,2.122-1.273,2.788-2.048
				c6.396-7.43,12.706-14.932,19.12-22.342c1.384-1.598,1.442-2.793,0.061-4.444c-10.363-12.393-20.615-24.878-30.977-37.28
				c-12.221-14.621-24.517-29.188-36.771-43.787c-0.615-0.73-1.732-1.372-1.188-2.512c0.555-1.151,1.797-0.632,2.725-0.634
				c13.384-0.033,26.769,0.008,40.15-0.05c1.986-0.01,3.347,0.524,4.668,2.116c15.192,18.282,30.498,36.471,45.698,54.741
				c1.448,1.739,2.254,1.807,3.726,0.067c8.729-10.321,17.532-20.583,26.352-30.833c7.1-8.252,14.257-16.457,21.372-24.695
				c0.761-0.877,1.612-1.371,2.831-1.371c16.135,0.021,32.27,0.014,48.402,0.033c0.516,0,1.116-0.066,1.477,0.497
				c0.271,0.87-0.42,1.314-0.88,1.831c-11.883,13.234-23.792,26.443-35.65,39.696c-9.563,10.69-19.06,21.441-28.605,32.147
				c-3.441,3.86-6.886,7.718-10.428,11.489c-1.57,1.673-0.116,4.821-0.116,4.821l41.673,48.155l51.72,60.719"/>
		</g>
	</g>
</g>
</svg>
