<?xml version="1.0" encoding="utf-8"?>
<!-- Generator: Adobe Illustrator 14.0.0, SVG Export Plug-In . SVG Version: 6.00 Build 43363)  -->
<!DOCTYPE svg PUBLIC "-//W3C//DTD SVG 1.1//EN" "http://www.w3.org/Graphics/SVG/1.1/DTD/svg11.dtd">
<svg version="1.1" id="Layer_1" xmlns="http://www.w3.org/2000/svg" xmlns:xlink="http://www.w3.org/1999/xlink" x="0px" y="0px"
	 width="180px" height="180px" viewBox="0 0 180 180" enable-background="new 0 0 180 180" xml:space="preserve">
<g>
	<path fill="#010101" d="M166.731,125.151c-5.324,0.001-10.648-0.019-15.972,0.023c-0.828,0.007-1.34-0.336-1.815-0.911
		c-6.548-7.921-13.086-15.85-19.653-23.752c-5.786-6.961-11.604-13.894-17.419-20.832c-0.354-0.422-0.622-0.953-1.353-1.206
		c-1.941,1.326-3.221,3.403-4.813,5.158c-2.506,2.762-4.809,5.711-7.337,8.453c-0.937,1.016-0.638,1.626,0.06,2.449
		c3.836,4.523,7.66,9.058,11.481,13.594c4.577,5.435,9.147,10.875,13.717,16.317c0.093,0.111,0.131,0.271,0.186,0.388
		c-0.127,0.421-0.453,0.384-0.756,0.383c-8.135-0.027-16.27-0.095-24.404-0.052c-1.42,0.007-2.368-0.41-3.255-1.498
		c-3.621-4.436-7.314-8.813-10.982-13.209c-0.16-0.191-0.34-0.365-0.555-0.595c-1.176,0.493-1.773,1.562-2.524,2.409
		c-3.557,4.018-7.058,8.084-10.55,12.158c-0.445,0.52-0.891,0.733-1.569,0.733c-8.701,0.003-17.403,0.034-26.104,0.052
		c-0.347,0.001-0.693-0.055-1.41-0.115c1.427-1.696,2.668-3.192,3.932-4.669c7.406-8.666,14.792-17.349,22.254-25.965
		c1.118-1.291,1.188-2.142,0.055-3.474c-5.8-6.815-11.522-13.699-17.24-20.583c-6.306-7.592-12.576-15.215-18.867-22.819
		c-1.663-2.009-3.334-4.011-5.034-5.989c-0.385-0.448-0.714-1.006-1.419-1.207c-0.626,0.505-0.366,1.221-0.366,1.828
		c-0.015,24.726-0.013,49.451-0.013,74.176c0,2.509-0.024,5.017,0.012,7.525c0.013,0.909-0.313,1.299-1.242,1.294
		c-6.961-0.039-13.922-0.054-20.883-0.081c-0.198-0.001-0.395-0.063-0.567-0.092c-0.378-0.555-0.229-1.134-0.229-1.679
		C2.089,87.02,2.089,50.674,2.09,14.328c0-2.152,0.004-2.156,2.2-2.156c7.935-0.001,15.87,0.018,23.804-0.021
		c1.171-0.006,1.996,0.316,2.768,1.243c5.884,7.071,11.816,14.103,17.74,21.14c6.417,7.625,12.844,15.241,19.263,22.865
		c1.349,1.603,2.68,3.22,4.089,4.915c3.98,4.734,7.891,9.384,11.742,13.963c0.912-0.09,1.184-0.721,1.557-1.161
		c3.571-4.213,7.094-8.466,10.677-12.668c0.772-0.905,0.805-1.583,0.034-2.519c-5.789-7.027-11.514-14.105-17.299-21.135
		c-6.825-8.292-13.691-16.55-20.535-24.827c-0.344-0.415-0.968-0.779-0.663-1.424c0.31-0.653,1.003-0.359,1.522-0.36
		c7.474-0.019,14.947,0.004,22.421-0.029c1.109-0.005,1.867,0.298,2.607,1.201c8.484,10.364,17.031,20.677,25.521,31.037
		c0.808,0.986,1.257,1.025,2.079,0.038c4.875-5.852,9.791-11.67,14.715-17.482c3.965-4.679,7.962-9.331,11.938-14.002
		c0.424-0.498,0.899-0.777,1.58-0.776c9.009,0.012,18.019,0.008,27.028,0.018c0.289,0,0.624-0.037,0.826,0.282
		c0.15,0.493-0.235,0.746-0.492,1.037c-6.635,7.504-13.286,14.993-19.908,22.508c-5.342,6.061-10.645,12.156-15.975,18.227
		c-1.922,2.189-3.846,4.376-5.822,6.514c-0.878,0.949-0.066,2.732-0.066,2.732l23.271,27.304l28.883,34.426"/>
	<path fill="#08496C" d="M32.614,167.74c-2.991,0.499-4.669-0.637-6.224-3.133c-4.751-7.632-9.858-15.048-14.824-22.55
		c-0.17-0.257-0.281-0.559-0.707-0.653c-0.419,0.414-0.229,0.966-0.23,1.448c-0.014,7.593-0.01,15.186-0.011,22.777
		c0,2.108-0.001,2.109-2.208,2.11c-1.661,0-3.322-0.038-4.981,0.014c-0.953,0.03-1.365-0.243-1.363-1.26
		c0.025-12.095,0.023-24.189,0-36.284c-0.001-0.966,0.318-1.329,1.319-1.312c2.782,0.047,5.566,0.064,8.347-0.005
		c1.037-0.026,1.646,0.351,2.182,1.175c3.692,5.682,7.414,11.345,11.131,17.011c1.434,2.185,2.882,4.358,4.513,6.821
		c0-0.692,0-1.097,0-1.502c0-7.283,0.024-14.566-0.026-21.85c-0.009-1.255,0.348-1.729,1.669-1.657
		c1.835,0.1,3.68,0.054,5.519,0.009c0.943-0.022,1.376,0.242,1.375,1.263c-0.025,12.095-0.024,24.189-0.002,36.284
		c0.001,0.953-0.288,1.36-1.307,1.311C35.444,167.69,34.095,167.74,32.614,167.74z"/>
	<path fill="#08496C" d="M157.691,141.938c0.045,3.215-0.42,2.814,2.684,2.828c4.712,0.02,9.425,0.043,14.137-0.018
		c1.197-0.016,1.578,0.365,1.518,1.518c-0.086,1.583-0.076,3.179-0.005,4.765c0.048,1.058-0.358,1.362-1.401,1.354
		c-5.115-0.039-10.232,0.019-15.348-0.04c-1.223-0.014-1.688,0.308-1.609,1.558c0.103,1.627,0.081,3.268,0.006,4.896
		c-0.05,1.063,0.347,1.364,1.397,1.357c5.699-0.04,11.399,0.02,17.098-0.045c1.329-0.015,1.858,0.313,1.753,1.692
		c-0.12,1.58-0.055,3.177-0.018,4.765c0.02,0.832-0.271,1.184-1.16,1.182c-8.886-0.021-17.771-0.022-26.657,0.001
		c-0.968,0.003-1.211-0.392-1.209-1.267c0.017-12.095,0.02-24.188-0.005-36.282c-0.002-0.963,0.305-1.308,1.312-1.304
		c8.706,0.031,17.413,0.027,26.119,0.009c0.879-0.001,1.337,0.222,1.313,1.185c-0.046,1.896-0.036,3.795-0.009,5.693
		c0.011,0.743-0.287,0.996-1.036,0.994c-5.472-0.017-10.944-0.004-16.417-0.001c-0.403,0-0.81,0.018-1.211-0.014
		c-0.895-0.067-1.317,0.242-1.267,1.205C157.743,139.246,157.691,140.528,157.691,141.938z"/>
	<path fill="#08496C" d="M74.614,160.14c1.982,0.019,1.985,0.019,1.989,1.802c0.004,1.546-0.022,3.092,0.01,4.636
		c0.018,0.835-0.29,1.175-1.175,1.173c-8.888-0.021-17.776-0.028-26.664,0.004c-1.274,0.006-1.171-0.752-1.171-1.567
		c0.003-10.021,0.001-20.043,0-30.064c0-1.942,0.039-3.887-0.014-5.827c-0.026-0.991,0.252-1.408,1.356-1.403
		c8.573,0.038,17.146,0.032,25.721,0.008c0.963-0.003,1.394,0.281,1.369,1.279c-0.047,1.81-0.041,3.621,0.005,5.43
		c0.023,0.914-0.298,1.213-1.253,1.208c-5.562-0.031-11.126,0.249-16.684-0.069c-1.38-0.079-1.815,0.376-1.721,1.719
		c0.117,1.669,0.074,3.354,0.011,5.03c-0.038,0.991,0.334,1.299,1.324,1.292c5.072-0.036,10.145,0.014,15.217-0.037
		c1.158-0.011,1.613,0.301,1.542,1.492c-0.094,1.583-0.075,3.179-0.002,4.766c0.047,1.049-0.344,1.383-1.393,1.376
		c-5.027-0.037-10.055,0.02-15.082-0.037c-1.213-0.014-1.695,0.289-1.613,1.55c0.104,1.627,0.08,3.268,0.005,4.897
		c-0.048,1.055,0.334,1.37,1.393,1.362C63.35,160.115,68.916,160.139,74.614,160.14z"/>
	<path fill="#08496C" d="M95.545,130.389c2.375,3.419,4.69,6.76,7.095,10.23c1.515-1.502,2.357-3.22,3.457-4.749
		c1.397-1.942,2.753-3.916,4.064-5.917c0.492-0.754,1.06-1.075,1.978-1.058c2.603,0.05,5.206,0.013,7.81,0.03
		c0.471,0.003,0.997-0.146,1.521,0.421c-0.98,1.353-1.965,2.743-2.981,4.11c-3.253,4.374-6.496,8.756-9.795,13.096
		c-0.639,0.84-0.55,1.408,0.063,2.199c4.398,5.68,8.758,11.39,13.118,17.099c0.367,0.481,0.837,0.921,0.952,1.568
		c-0.37,0.505-0.908,0.308-1.363,0.312c-2.604,0.02-5.208-0.033-7.81,0.03c-1.01,0.023-1.618-0.294-2.196-1.128
		c-2.699-3.896-5.477-7.74-8.23-11.599c-0.151-0.212-0.342-0.395-0.613-0.705c-2.314,3.331-4.824,6.462-6.775,9.899
		c-1.616,2.852-3.606,4.004-6.868,3.562c-1.916-0.26-3.898-0.047-5.823-0.047c-0.131-0.825,0.336-1.192,0.638-1.597
		c4.373-5.86,8.746-11.721,13.17-17.543c0.57-0.75,0.527-1.227-0.009-1.936c-4.092-5.415-8.147-10.856-12.215-16.289
		c-0.26-0.348-0.637-0.635-0.587-1.165c0.408-0.473,0.985-0.29,1.493-0.295c2.334-0.019,4.67,0.062,7-0.03
		C93.929,128.838,94.929,129.069,95.545,130.389z"/>
	<path fill="#08496C" d="M139.101,130.07c0.002,12.041,0.004,23.954,0.004,35.867c0,1.798-0.006,1.8-1.851,1.803
		c-1.884,0.003-3.771-0.063-5.65,0.022c-1.241,0.057-1.604-0.377-1.597-1.581c0.042-9.354,0.023-18.708,0.023-28.062
		c0-2.648,0.022-5.296-0.008-7.942c-0.011-0.859,0.214-1.304,1.2-1.282c2.242,0.049,4.486,0.03,6.729,0.007
		C138.708,128.896,139.178,129.103,139.101,130.07z"/>
	<g id="fdab79a77e">
		
			<linearGradient id="SVGID_1_" gradientUnits="userSpaceOnUse" x1="205.1992" y1="-131.231" x2="349.201" y2="-275.2327" gradientTransform="matrix(1 0 0 -1 -189.6602 -131.96)">
			<stop  offset="0.0848" style="stop-color:#41AFE3"/>
			<stop  offset="0.2606" style="stop-color:#3C98D4"/>
			<stop  offset="1" style="stop-color:#08496C"/>
		</linearGradient>
		<path fill="url(#SVGID_1_)" d="M166.731,125.152c-5.324,0.002-10.647-0.019-15.972,0.024c-0.827,0.006-1.339-0.336-1.815-0.913
			c-6.547-7.919-13.086-15.849-19.653-23.751c-5.786-6.962-11.604-13.895-17.418-20.832c-0.354-0.422-0.623-0.953-1.354-1.207
			c-1.941,1.327-3.22,3.404-4.813,5.158c-2.506,2.763-4.808,5.711-7.337,8.453c-0.937,1.018-0.638,1.627,0.061,2.449
			c3.835,4.525,7.659,9.059,11.481,13.595c4.576,5.434,9.146,10.876,13.716,16.317c0.093,0.111,0.13,0.27,0.186,0.388
			c-0.127,0.421-0.453,0.384-0.756,0.382c-8.134-0.026-16.271-0.094-24.404-0.052c-1.42,0.008-2.368-0.409-3.255-1.496
			c-3.621-4.436-7.314-8.813-10.982-13.211c-0.16-0.191-0.339-0.365-0.555-0.594c-1.176,0.493-1.773,1.561-2.524,2.409
			c-3.557,4.018-7.059,8.083-10.55,12.158c-0.446,0.52-0.891,0.732-1.569,0.732c-8.701,0.005-17.403,0.034-26.104,0.053
			c-0.347,0.001-0.694-0.055-1.411-0.116c1.427-1.695,2.669-3.191,3.932-4.669c7.406-8.665,14.792-17.349,22.254-25.965
			c1.119-1.291,1.188-2.142,0.055-3.472c-5.8-6.816-11.521-13.7-17.24-20.585c-6.306-7.592-12.576-15.214-18.867-22.819
			c-1.663-2.009-3.334-4.011-5.034-5.989c-0.386-0.448-0.714-1.006-1.419-1.206c-0.626,0.505-0.366,1.221-0.367,1.828
			c-0.015,24.726-0.012,49.451-0.013,74.177c0,2.509-0.024,5.017,0.012,7.525c0.014,0.909-0.313,1.299-1.241,1.294
			c-6.961-0.039-13.922-0.053-20.884-0.08c-0.197-0.001-0.395-0.063-0.566-0.092c-0.379-0.556-0.23-1.134-0.23-1.681
			C2.088,87.021,2.089,50.674,2.09,14.329c0-2.152,0.004-2.156,2.2-2.156c7.935-0.001,15.87,0.017,23.805-0.021
			c1.171-0.006,1.996,0.315,2.768,1.244c5.883,7.07,11.816,14.102,17.74,21.14C55.02,42.16,61.447,49.776,67.866,57.4
			c1.35,1.603,2.68,3.22,4.09,4.915c3.98,4.734,7.891,9.384,11.741,13.963c0.912-0.089,1.184-0.722,1.557-1.16
			c3.571-4.213,7.095-8.466,10.677-12.669c0.772-0.905,0.806-1.583,0.034-2.519c-5.788-7.027-11.514-14.106-17.299-21.136
			c-6.825-8.291-13.691-16.55-20.535-24.826c-0.344-0.416-0.968-0.779-0.663-1.425c0.309-0.653,1.002-0.359,1.521-0.36
			c7.474-0.019,14.948,0.004,22.421-0.028c1.109-0.005,1.868,0.297,2.607,1.2c8.484,10.365,17.032,20.677,25.521,31.037
			c0.809,0.986,1.257,1.024,2.079,0.038c4.875-5.853,9.792-11.67,14.716-17.482c3.964-4.679,7.961-9.331,11.937-14.001
			c0.425-0.499,0.9-0.777,1.58-0.777c9.009,0.012,18.02,0.008,27.029,0.018c0.289,0,0.624-0.037,0.826,0.282
			c0.15,0.493-0.236,0.746-0.493,1.037c-6.635,7.504-13.285,14.993-19.908,22.508c-5.342,6.061-10.645,12.156-15.974,18.227
			c-1.923,2.189-3.847,4.375-5.823,6.514c-0.878,0.949-0.066,2.733-0.066,2.733l23.271,27.304l28.883,34.426"/>
	</g>
</g>
</svg>
