<?xml version="1.0" encoding="utf-8"?>
<!-- Generator: Adobe Illustrator 14.0.0, SVG Export Plug-In . SVG Version: 6.00 Build 43363)  -->
<!DOCTYPE svg PUBLIC "-//W3C//DTD SVG 1.1//EN" "http://www.w3.org/Graphics/SVG/1.1/DTD/svg11.dtd">
<svg version="1.1" id="Layer_1" xmlns="http://www.w3.org/2000/svg" xmlns:xlink="http://www.w3.org/1999/xlink" x="0px" y="0px"
	 width="512px" height="512px" viewBox="0 0 512 512" enable-background="new 0 0 512 512" xml:space="preserve">
<g>
	<path fill="#020202" d="M477.945,356.143c-15.395,0.006-30.797-0.047-46.192,0.067c-2.4,0.02-3.879-0.951-5.258-2.598
		c-18.938-22.564-37.846-45.15-56.843-67.665c-16.738-19.832-33.563-39.583-50.384-59.348c-1.025-1.201-1.798-2.714-3.917-3.435
		c-5.614,3.778-9.311,9.692-13.914,14.694c-7.25,7.87-13.911,16.271-21.226,24.08c-2.709,2.896-1.843,4.639,0.175,6.979
		c11.09,12.893,22.159,25.806,33.207,38.729c13.24,15.483,26.463,30.982,39.677,46.487c0.271,0.319,0.38,0.77,0.534,1.104
		c-0.364,1.199-1.308,1.096-2.184,1.092c-23.526-0.078-47.058-0.272-70.593-0.146c-4.106,0.017-6.849-1.171-9.413-4.272
		c-10.472-12.638-21.155-25.106-31.766-37.628c-0.462-0.549-0.981-1.041-1.604-1.696c-3.401,1.409-5.132,4.45-7.304,6.865
		c-10.285,11.446-20.412,23.031-30.515,34.64c-1.286,1.479-2.574,2.088-4.536,2.088c-25.168,0.014-50.336,0.093-75.506,0.147
		c-1.002,0.002-2.006-0.157-4.081-0.331c4.128-4.832,7.719-9.096,11.373-13.3c21.422-24.688,42.786-49.424,64.371-73.974
		c3.233-3.68,3.435-6.097,0.156-9.896c-16.772-19.416-33.325-39.026-49.863-58.643c-18.244-21.629-36.38-43.342-54.575-65.006
		c-4.81-5.724-9.646-11.431-14.563-17.064c-1.113-1.273-2.063-2.866-4.104-3.437c-1.811,1.439-1.059,3.478-1.059,5.207
		c-0.041,70.439-0.034,140.883-0.037,211.328c0,7.141-0.07,14.293,0.034,21.436c0.041,2.592-0.905,3.698-3.59,3.689
		c-20.137-0.113-40.272-0.151-60.404-0.233c-0.573-0.002-1.145-0.18-1.643-0.262c-1.095-1.58-0.664-3.228-0.664-4.781
		C1.716,247.507,1.717,143.962,1.72,40.417c0-6.135,0.013-6.144,6.362-6.144c22.954-0.003,45.905,0.05,68.855-0.059
		c3.389-0.016,5.774,0.899,8.006,3.544c17.022,20.144,34.177,40.176,51.313,60.227c18.566,21.721,37.155,43.419,55.722,65.139
		c3.903,4.565,7.753,9.171,11.828,14.001c11.514,13.488,22.824,26.735,33.964,39.784c2.636-0.263,3.425-2.057,4.504-3.312
		c10.333-12.002,20.521-24.117,30.885-36.089c2.232-2.577,2.326-4.508,0.098-7.175c-16.744-20.021-33.304-40.19-50.037-60.218
		c-19.744-23.621-39.602-47.147-59.397-70.729c-0.997-1.179-2.802-2.216-1.922-4.057c0.897-1.86,2.906-1.021,4.404-1.025
		c21.619-0.053,43.236,0.013,64.852-0.081c3.211-0.013,5.406,0.846,7.543,3.417c24.538,29.531,49.261,58.911,73.818,88.424
		c2.339,2.81,3.637,2.918,6.015,0.108c14.101-16.674,28.319-33.247,42.565-49.806c11.469-13.331,23.029-26.583,34.522-39.89
		c1.229-1.417,2.604-2.217,4.573-2.214c26.063,0.035,52.126,0.022,78.182,0.054c0.839,0,1.806-0.106,2.393,0.802
		c0.433,1.404-0.681,2.123-1.426,2.954c-19.19,21.381-38.432,42.717-57.582,64.123c-15.452,17.267-30.792,34.633-46.211,51.93
		c-5.556,6.235-11.122,12.466-16.844,18.558c-2.534,2.703-0.188,7.785-0.188,7.785l67.32,77.789l83.538,98.077"/>
	<path fill="#074A6D" d="M90.01,477.475c-8.649,1.424-13.508-1.812-18-8.923c-13.747-21.744-28.517-42.874-42.88-64.24
		c-0.49-0.734-0.815-1.59-2.044-1.864c-1.214,1.181-0.662,2.752-0.666,4.127c-0.041,21.629-0.028,43.262-0.028,64.89
		c0,6.01-0.006,6.011-6.39,6.011c-4.8,0-9.608-0.105-14.407,0.043c-2.758,0.088-3.949-0.69-3.942-3.589
		c0.071-34.459,0.068-68.915,0.003-103.375c-0.006-2.748,0.918-3.785,3.814-3.735c8.045,0.138,16.101,0.184,24.145-0.015
		c2.999-0.072,4.764,1.002,6.31,3.349c10.678,16.19,21.444,32.322,32.196,48.46c4.148,6.228,8.336,12.418,13.052,19.437
		c0-1.974,0-3.126,0-4.278c0-20.75,0.072-41.502-0.071-62.251c-0.028-3.571,1.005-4.927,4.826-4.718
		c5.308,0.282,10.646,0.154,15.964,0.021c2.726-0.062,3.984,0.691,3.978,3.597c-0.074,34.462-0.071,68.92-0.009,103.376
		c0.006,2.712-0.832,3.872-3.776,3.73C98.195,477.336,94.293,477.479,90.01,477.475z"/>
	<path fill="#074A6D" d="M451.8,403.971c0.13,9.157-1.212,8.018,7.761,8.057c13.63,0.055,27.26,0.125,40.894-0.051
		c3.464-0.041,4.565,1.039,4.389,4.32c-0.244,4.515-0.216,9.063-0.011,13.577c0.137,3.012-1.043,3.883-4.055,3.86
		c-14.8-0.116-29.6,0.048-44.396-0.116c-3.538-0.041-4.882,0.874-4.652,4.439c0.298,4.634,0.232,9.306,0.015,13.944
		c-0.142,3.032,0.998,3.89,4.039,3.87c16.488-0.117,32.976,0.056,49.455-0.129c3.847-0.04,5.376,0.892,5.073,4.823
		c-0.347,4.5-0.156,9.048-0.051,13.573c0.057,2.372-0.782,3.371-3.356,3.367c-25.706-0.059-51.406-0.063-77.103,0.004
		c-2.801,0.007-3.508-1.117-3.504-3.613c0.054-34.451,0.057-68.909-0.013-103.362c-0.005-2.741,0.882-3.727,3.799-3.717
		c25.179,0.093,50.366,0.077,75.547,0.029c2.541-0.004,3.867,0.629,3.797,3.374c-0.132,5.396-0.108,10.81-0.028,16.218
		c0.035,2.119-0.825,2.842-2.993,2.832c-15.831-0.047-31.656-0.009-47.488,0c-1.168,0-2.341,0.048-3.502-0.041
		c-2.587-0.195-3.813,0.691-3.661,3.435C451.955,396.303,451.804,399.952,451.8,403.971z"/>
	<path fill="#074A6D" d="M211.496,455.826c5.738,0.052,5.744,0.052,5.756,5.129c0.013,4.401-0.067,8.809,0.03,13.209
		c0.051,2.374-0.839,3.347-3.398,3.341c-25.71-0.062-51.421-0.08-77.129,0.013c-3.683,0.015-3.387-2.146-3.387-4.464
		c0.011-28.555,0.003-57.107,0-85.656c0-5.528,0.112-11.071-0.04-16.603c-0.078-2.821,0.726-4.009,3.925-3.993
		c24.798,0.107,49.597,0.089,74.396,0.017c2.784-0.006,4.034,0.804,3.958,3.651c-0.134,5.148-0.115,10.312,0.019,15.469
		c0.066,2.602-0.865,3.453-3.625,3.44c-16.089-0.092-32.182,0.707-48.262-0.202c-3.99-0.222-5.25,1.073-4.975,4.9
		c0.337,4.757,0.213,9.557,0.033,14.331c-0.108,2.826,0.965,3.7,3.831,3.68c14.67-0.102,29.345,0.039,44.016-0.105
		c3.349-0.028,4.666,0.858,4.459,4.252c-0.271,4.512-0.218,9.057-0.008,13.578c0.139,2.988-0.994,3.938-4.027,3.918
		c-14.544-0.103-29.087,0.058-43.626-0.103c-3.51-0.037-4.901,0.822-4.667,4.413c0.301,4.637,0.232,9.31,0.019,13.955
		c-0.14,3.007,0.964,3.901,4.027,3.881C178.917,455.754,195.015,455.821,211.496,455.826z"/>
	<path fill="#074A6D" d="M272.039,371.065c6.872,9.739,13.564,19.255,20.521,29.146c4.383-4.277,6.823-9.174,10.002-13.53
		c4.042-5.533,7.963-11.156,11.753-16.856c1.429-2.147,3.063-3.063,5.726-3.013c7.523,0.144,15.057,0.037,22.592,0.083
		c1.36,0.009,2.879-0.413,4.395,1.204c-2.838,3.847-5.686,7.81-8.622,11.705c-9.411,12.464-18.794,24.947-28.336,37.307
		c-1.846,2.396-1.589,4.017,0.183,6.271c12.723,16.182,25.332,32.444,37.944,48.715c1.063,1.371,2.422,2.621,2.757,4.466
		c-1.07,1.437-2.628,0.874-3.944,0.886c-7.53,0.058-15.065-0.093-22.592,0.087c-2.919,0.069-4.682-0.837-6.352-3.217
		c-7.804-11.094-15.841-22.047-23.809-33.042c-0.432-0.601-0.986-1.121-1.776-2.006c-6.689,9.484-13.947,18.411-19.592,28.202
		c-4.675,8.123-10.432,11.409-19.869,10.146c-5.54-0.738-11.271-0.134-16.841-0.134c-0.38-2.348,0.969-3.396,1.845-4.55
		c12.644-16.692,25.295-33.392,38.094-49.979c1.651-2.136,1.526-3.492-0.025-5.51c-11.833-15.435-23.566-30.934-35.333-46.408
		c-0.751-0.991-1.841-1.81-1.699-3.317c1.182-1.351,2.847-0.832,4.319-0.839c6.751-0.06,13.511,0.171,20.25-0.09
		C267.364,366.645,270.257,367.306,272.039,371.065z"/>
	<path fill="#074A6D" d="M398.023,370.161c0.007,34.3,0.014,68.241,0.014,102.181c0,5.125-0.02,5.127-5.352,5.133
		c-5.451,0.007-10.911-0.176-16.346,0.063c-3.59,0.16-4.639-1.069-4.62-4.497c0.125-26.654,0.069-53.303,0.069-79.949
		c0-7.546,0.067-15.087-0.025-22.624c-0.025-2.45,0.624-3.717,3.474-3.659c6.487,0.142,12.979,0.087,19.465,0.023
		C396.888,366.813,398.245,367.4,398.023,370.161z"/>
	<g id="fdab79a77e">
		
			<linearGradient id="SVGID_1_" gradientUnits="userSpaceOnUse" x1="521.166" y1="-463.3623" x2="935.2413" y2="-49.2871" gradientTransform="matrix(1 0 0 1 -479.3203 459.0801)">
			<stop  offset="0.0848" style="stop-color:#42AFE2"/>
			<stop  offset="0.2606" style="stop-color:#3E98D4"/>
			<stop  offset="1" style="stop-color:#074A6D"/>
		</linearGradient>
		<path fill="url(#SVGID_1_)" d="M477.945,356.145c-15.395,0.008-30.797-0.049-46.192,0.071c-2.396,0.02-3.878-0.957-5.255-2.602
			c-18.936-22.562-37.849-45.149-56.846-67.664c-16.738-19.835-33.563-39.586-50.384-59.348c-1.025-1.201-1.798-2.717-3.914-3.438
			c-5.617,3.778-9.313,9.695-13.917,14.694c-7.25,7.87-13.911,16.271-21.226,24.083c-2.709,2.898-1.843,4.639,0.175,6.977
			c11.093,12.896,22.159,25.813,33.21,38.731c13.237,15.48,26.457,30.985,39.676,46.487c0.27,0.32,0.372,0.767,0.532,1.107
			c-0.364,1.197-1.308,1.094-2.184,1.086c-23.526-0.074-47.062-0.269-70.593-0.146c-4.104,0.017-6.849-1.168-9.41-4.267
			c-10.475-12.636-21.158-25.104-31.769-37.634c-0.462-0.549-0.981-1.041-1.604-1.693c-3.401,1.406-5.129,4.447-7.3,6.865
			c-10.289,11.443-20.416,23.028-30.516,34.64c-1.289,1.478-2.577,2.089-4.535,2.089c-25.171,0.011-50.34,0.089-75.506,0.146
			c-1.005,0.004-2.009-0.155-4.084-0.333c4.128-4.829,7.719-9.093,11.373-13.297c21.422-24.687,42.789-49.424,64.371-73.977
			c3.236-3.677,3.436-6.097,0.156-9.893c-16.772-19.416-33.325-39.029-49.863-58.643c-18.244-21.629-36.38-43.342-54.579-65.009
			c-4.81-5.724-9.646-11.431-14.56-17.064c-1.117-1.273-2.066-2.866-4.108-3.434c-1.811,1.439-1.056,3.477-1.059,5.204
			c-0.041,70.442-0.034,140.886-0.038,211.328c0,7.148-0.069,14.293,0.038,21.439c0.038,2.592-0.908,3.697-3.59,3.688
			c-20.14-0.113-40.272-0.153-60.407-0.228c-0.573-0.004-1.142-0.184-1.643-0.266c-1.095-1.584-0.661-3.231-0.661-4.785
			C1.712,247.51,1.716,143.962,1.717,40.417c0-6.135,0.012-6.141,6.365-6.144c22.95-0.003,45.905,0.05,68.855-0.059
			c3.389-0.016,5.777,0.899,8.006,3.544c17.019,20.144,34.181,40.179,51.313,60.227c18.563,21.721,37.155,43.419,55.722,65.142
			c3.903,4.562,7.752,9.168,11.828,13.998c11.51,13.488,22.824,26.735,33.961,39.784c2.639-0.258,3.428-2.057,4.503-3.308
			c10.332-12.003,20.524-24.121,30.885-36.089c2.236-2.581,2.33-4.511,0.099-7.179c-16.741-20.018-33.301-40.185-50.038-60.218
			c-19.74-23.618-39.602-47.147-59.397-70.729c-0.993-1.179-2.798-2.216-1.918-4.057c0.896-1.86,2.902-1.021,4.401-1.025
			c21.619-0.053,43.239,0.013,64.855-0.081c3.208-0.016,5.406,0.846,7.541,3.417c24.541,29.531,49.264,58.911,73.817,88.424
			c2.34,2.81,3.641,2.918,6.019,0.108c14.101-16.671,28.319-33.247,42.565-49.806c11.469-13.331,23.029-26.583,34.522-39.89
			c1.229-1.417,2.604-2.214,4.573-2.214c26.063,0.035,52.126,0.022,78.185,0.054c0.833,0,1.803-0.106,2.385,0.802
			c0.438,1.404-0.678,2.123-1.421,2.957c-19.194,21.378-38.432,42.714-57.587,64.122c-15.447,17.268-30.787,34.635-46.206,51.928
			c-5.559,6.235-11.122,12.466-16.844,18.558c-2.536,2.703-0.188,7.788-0.188,7.788l67.315,77.786l83.543,98.081"/>
	</g>
</g>
</svg>
