<?xml version="1.0" encoding="utf-8"?>
<!-- Generator: Adobe Illustrator 14.0.0, SVG Export Plug-In . SVG Version: 6.00 Build 43363)  -->
<!DOCTYPE svg PUBLIC "-//W3C//DTD SVG 1.1//EN" "http://www.w3.org/Graphics/SVG/1.1/DTD/svg11.dtd">
<svg version="1.1" id="Layer_1" xmlns="http://www.w3.org/2000/svg" xmlns:xlink="http://www.w3.org/1999/xlink" x="0px" y="0px"
	 width="216px" height="216px" viewBox="0 0 216 216" enable-background="new 0 0 216 216" xml:space="preserve">
<g id="fdab79a77e">
	
		<linearGradient id="SVGID_1_" gradientUnits="userSpaceOnUse" x1="207.8291" y1="-120.0474" x2="381.9504" y2="-294.1687" gradientTransform="matrix(1 0 0 -1 -189.6602 -95.96)">
		<stop  offset="0.0848" style="stop-color:#41AFE3"/>
		<stop  offset="0.2606" style="stop-color:#3C98D4"/>
		<stop  offset="1" style="stop-color:#2F56A7"/>
	</linearGradient>
	<path fill="url(#SVGID_1_)" d="M200.983,176.297c-6.437,0.002-12.875-0.021-19.312,0.029c-1.001,0.008-1.618-0.406-2.195-1.104
		c-7.918-9.576-15.823-19.162-23.764-28.719c-6.996-8.416-14.032-16.801-21.062-25.189c-0.428-0.51-0.754-1.152-1.637-1.459
		c-2.349,1.604-3.893,4.115-5.819,6.236c-3.029,3.342-5.813,6.906-8.87,10.223c-1.133,1.229-0.771,1.967,0.072,2.961
		c4.638,5.471,9.262,10.953,13.882,16.438c5.535,6.572,11.061,13.15,16.585,19.73c0.112,0.135,0.158,0.328,0.225,0.469
		c-0.154,0.51-0.548,0.465-0.914,0.463c-9.835-0.033-19.673-0.115-29.508-0.063c-1.717,0.008-2.863-0.496-3.937-1.811
		c-4.379-5.363-8.843-10.656-13.279-15.973c-0.192-0.232-0.41-0.441-0.67-0.719c-1.422,0.596-2.144,1.889-3.052,2.914
		c-4.301,4.857-8.535,9.773-12.756,14.701c-0.54,0.627-1.078,0.885-1.898,0.885c-10.521,0.006-21.043,0.041-31.563,0.064
		c-0.419,0.002-0.839-0.066-1.707-0.141c1.726-2.051,3.228-3.859,4.754-5.645c8.956-10.479,17.886-20.977,26.908-31.398
		c1.353-1.561,1.437-2.588,0.067-4.197c-7.013-8.242-13.932-16.564-20.846-24.891c-7.625-9.179-15.207-18.396-22.814-27.591
		c-2.01-2.429-4.032-4.85-6.086-7.241c-0.466-0.542-0.864-1.216-1.717-1.458c-0.757,0.611-0.442,1.476-0.443,2.21
		c-0.018,29.897-0.015,59.793-0.016,89.69c0,3.033-0.029,6.068,0.015,9.102c0.017,1.098-0.379,1.568-1.5,1.564
		c-8.418-0.047-16.834-0.066-25.252-0.098c-0.238-0.002-0.477-0.076-0.685-0.111c-0.458-0.672-0.277-1.371-0.277-2.031
		C1.904,130.191,1.905,86.242,1.907,42.295c0-2.603,0.005-2.607,2.66-2.608c9.594-0.001,19.189,0.021,28.784-0.025
		c1.416-0.007,2.414,0.382,3.346,1.503c7.115,8.55,14.289,17.052,21.451,25.562c7.76,9.219,15.531,18.429,23.292,27.647
		c1.632,1.938,3.241,3.893,4.945,5.942c4.813,5.725,9.542,11.348,14.197,16.885c1.103-0.109,1.433-0.873,1.883-1.404
		c4.318-5.094,8.578-10.235,12.91-15.317c0.935-1.095,0.975-1.914,0.042-3.046c-6.999-8.497-13.923-17.057-20.918-25.557
		c-8.252-10.025-16.555-20.011-24.829-30.02c-0.416-0.501-1.17-0.941-0.802-1.722c0.374-0.79,1.213-0.434,1.84-0.435
		c9.037-0.023,18.074,0.005,27.111-0.035c1.341-0.006,2.258,0.36,3.152,1.452c10.258,12.532,20.594,25.001,30.859,37.528
		c0.978,1.193,1.521,1.239,2.514,0.046c5.896-7.077,11.84-14.112,17.793-21.139c4.794-5.658,9.628-11.282,14.434-16.93
		c0.514-0.603,1.089-0.939,1.91-0.938c10.895,0.015,21.789,0.009,32.684,0.021c0.35,0,0.754-0.044,0.999,0.341
		c0.183,0.596-0.285,0.902-0.597,1.253c-8.021,9.074-16.064,18.129-24.071,27.216c-6.459,7.329-12.871,14.698-19.315,22.04
		c-2.324,2.646-4.65,5.29-7.04,7.875c-1.062,1.148-0.08,3.305-0.08,3.305l28.138,33.014l34.926,41.627"/>
</g>
</svg>
