<?xml version="1.0" encoding="utf-8"?>
<!-- Generator: Adobe Illustrator 14.0.0, SVG Export Plug-In . SVG Version: 6.00 Build 43363)  -->
<!DOCTYPE svg PUBLIC "-//W3C//DTD SVG 1.1//EN" "http://www.w3.org/Graphics/SVG/1.1/DTD/svg11.dtd">
<svg version="1.1" id="Layer_1" xmlns="http://www.w3.org/2000/svg" xmlns:xlink="http://www.w3.org/1999/xlink" x="0px" y="0px"
	 width="256px" height="256px" viewBox="0 0 256 256" enable-background="new 0 0 256 256" xml:space="preserve">
<g>
	<g>
		
			<linearGradient id="SVGID_1_" gradientUnits="userSpaceOnUse" x1="327.0791" y1="-193.3774" x2="508.2426" y2="-374.541" gradientTransform="matrix(1 0 0 -1 -289.6602 -155.96)">
			<stop  offset="0" style="stop-color:#49A9DF"/>
			<stop  offset="1" style="stop-color:#05496C"/>
		</linearGradient>
		<path fill="url(#SVGID_1_)" d="M243.012,168.635h7.361c-17.245,50.262-65.588,86.549-122.372,86.549
			c-56.787,0-105.127-36.287-122.374-86.549h7.362c16.954,46.421,62.111,79.702,115.012,79.702
			C180.9,248.337,226.058,215.056,243.012,168.635z M128.001,7.664c52.899,0,98.057,33.28,115.011,79.701h7.361
			C233.128,37.104,184.785,0.816,128.001,0.816c-56.787,0-105.127,36.287-122.374,86.549h7.362
			C29.943,40.944,75.1,7.664,128.001,7.664z M128.001,242.448c-49.551,0-91.962-30.707-108.631-73.813h-2.301
			c16.781,44.298,60.172,75.93,110.932,75.93c50.759,0,94.148-31.632,110.931-75.93h-2.302
			C219.96,211.741,177.549,242.448,128.001,242.448z M128.001,11.436c-50.76,0-94.15,31.632-110.932,75.93h2.301
			c16.669-43.107,59.08-73.814,108.631-73.814c49.548,0,91.959,30.707,108.629,73.814h2.301
			C222.149,43.067,178.76,11.436,128.001,11.436z"/>
	</g>
	<g>
		<path fill="#020202" d="M197.8,156.813c-4.781,0.002-9.564-0.015-14.347,0.021c-0.745,0.006-1.205-0.296-1.633-0.807
			c-5.882-7.009-11.755-14.023-17.655-21.017c-5.198-6.159-10.425-12.294-15.648-18.433c-0.318-0.373-0.559-0.843-1.217-1.066
			c-1.743,1.173-2.892,3.01-4.321,4.563c-2.252,2.444-4.32,5.054-6.593,7.479c-0.841,0.899-0.572,1.44,0.055,2.168
			c3.444,4.004,6.882,8.015,10.313,12.028c4.112,4.81,8.22,9.623,12.323,14.438c0.084,0.1,0.118,0.239,0.166,0.343
			c-0.113,0.373-0.406,0.341-0.678,0.34c-7.308-0.024-14.616-0.085-21.926-0.046c-1.275,0.006-2.127-0.363-2.924-1.326
			c-3.252-3.925-6.57-7.798-9.866-11.688c-0.144-0.17-0.305-0.323-0.498-0.526c-1.057,0.438-1.594,1.382-2.269,2.132
			c-3.194,3.556-6.34,7.153-9.478,10.759c-0.399,0.459-0.8,0.648-1.409,0.648c-7.816,0.004-15.634,0.029-23.451,0.046
			c-0.312,0.001-0.623-0.049-1.268-0.103c1.282-1.501,2.397-2.825,3.532-4.131c6.653-7.668,13.289-15.351,19.993-22.976
			c1.004-1.143,1.066-1.894,0.049-3.073c-5.21-6.03-10.351-12.121-15.487-18.214c-5.666-6.718-11.299-13.462-16.95-20.19
			c-1.494-1.777-2.996-3.55-4.523-5.3c-0.346-0.396-0.641-0.89-1.274-1.067c-0.563,0.447-0.329,1.08-0.329,1.617
			c-0.013,21.878-0.011,43.757-0.012,65.636c0,2.219-0.021,4.439,0.011,6.658c0.013,0.805-0.281,1.148-1.115,1.146
			c-6.254-0.035-12.508-0.047-18.761-0.072c-0.178-0.001-0.355-0.056-0.51-0.081c-0.34-0.491-0.206-1.003-0.206-1.485
			c-0.007-32.162-0.006-64.322-0.005-96.482c0-1.905,0.004-1.908,1.976-1.908c7.129-0.001,14.258,0.016,21.386-0.019
			c1.053-0.005,1.793,0.279,2.486,1.101c5.287,6.257,10.615,12.479,15.938,18.706c5.767,6.746,11.54,13.485,17.307,20.231
			c1.212,1.418,2.408,2.849,3.674,4.349c3.576,4.189,7.089,8.304,10.549,12.356c0.818-0.081,1.063-0.639,1.398-1.028
			c3.209-3.728,6.374-7.49,9.593-11.209c0.693-0.801,0.723-1.4,0.03-2.229c-5.2-6.219-10.344-12.482-15.541-18.703
			c-6.132-7.337-12.3-14.644-18.448-21.968c-0.31-0.366-0.87-0.688-0.597-1.26c0.279-0.578,0.902-0.317,1.368-0.318
			c6.715-0.017,13.429,0.004,20.143-0.025c0.997-0.004,1.679,0.263,2.343,1.062c7.621,9.172,15.3,18.297,22.927,27.464
			c0.727,0.872,1.13,0.906,1.868,0.033c4.38-5.179,8.796-10.326,13.221-15.469c3.562-4.141,7.152-8.257,10.723-12.39
			c0.382-0.44,0.809-0.688,1.42-0.688c8.095,0.011,16.189,0.007,24.282,0.017c0.261,0,0.562-0.033,0.743,0.249
			c0.135,0.437-0.211,0.659-0.442,0.917c-5.961,6.641-11.937,13.268-17.885,19.916c-4.8,5.363-9.563,10.757-14.353,16.129
			c-1.726,1.937-3.455,3.872-5.231,5.764c-0.787,0.84-0.059,2.418-0.059,2.418l20.908,24.16l25.947,30.462"/>
		<path fill="#074A6D" d="M77.312,194.498c-2.687,0.441-4.195-0.563-5.591-2.772c-4.27-6.753-8.857-13.315-13.318-19.952
			c-0.152-0.228-0.253-0.494-0.635-0.579c-0.377,0.367-0.206,0.855-0.207,1.282c-0.013,6.718-0.009,13.437-0.009,20.154
			c0,1.866-0.002,1.867-1.984,1.867c-1.491,0-2.984-0.033-4.475,0.013c-0.856,0.027-1.227-0.215-1.225-1.114
			c0.022-10.703,0.021-21.404,0.001-32.107c-0.002-0.854,0.285-1.176,1.185-1.16c2.499,0.042,5.001,0.057,7.499-0.005
			c0.932-0.022,1.479,0.312,1.96,1.04c3.316,5.028,6.66,10.039,10,15.052c1.288,1.934,2.589,3.856,4.054,6.036
			c0-0.613,0-0.971,0-1.329c0-6.444,0.022-12.89-0.022-19.334c-0.009-1.109,0.313-1.53,1.499-1.466
			c1.648,0.088,3.307,0.048,4.958,0.007c0.847-0.02,1.237,0.215,1.235,1.117c-0.022,10.703-0.021,21.405-0.003,32.107
			c0.002,0.843-0.258,1.203-1.173,1.159C79.854,194.454,78.642,194.499,77.312,194.498z"/>
		<path fill="#074A6D" d="M189.68,171.668c0.04,2.844-0.377,2.49,2.41,2.502c4.233,0.018,8.467,0.039,12.701-0.016
			c1.076-0.013,1.418,0.323,1.362,1.342c-0.075,1.402-0.066,2.814-0.003,4.217c0.043,0.936-0.323,1.206-1.259,1.199
			c-4.597-0.036-9.193,0.015-13.789-0.036c-1.099-0.013-1.516,0.271-1.445,1.379c0.093,1.438,0.072,2.891,0.005,4.331
			c-0.044,0.941,0.311,1.208,1.255,1.202c5.121-0.036,10.241,0.017,15.36-0.04c1.194-0.013,1.669,0.277,1.575,1.498
			c-0.107,1.397-0.049,2.811-0.016,4.216c0.018,0.736-0.243,1.047-1.042,1.046c-7.984-0.019-15.967-0.02-23.948,0.001
			c-0.869,0.002-1.089-0.348-1.088-1.122c0.017-10.7,0.018-21.402-0.004-32.104c-0.001-0.852,0.273-1.157,1.18-1.154
			c7.82,0.028,15.644,0.023,23.465,0.009c0.789-0.001,1.2,0.195,1.179,1.048c-0.041,1.677-0.033,3.357-0.009,5.037
			c0.011,0.658-0.256,0.883-0.93,0.88c-4.917-0.015-9.832-0.003-14.749,0c-0.363,0-0.728,0.015-1.088-0.013
			c-0.804-0.061-1.185,0.215-1.138,1.066C189.728,169.286,189.681,170.42,189.68,171.668z"/>
		<path fill="#074A6D" d="M115.044,187.773c1.781,0.017,1.783,0.017,1.787,1.594c0.004,1.367-0.021,2.735,0.01,4.102
			c0.016,0.738-0.261,1.04-1.056,1.038c-7.985-0.019-15.971-0.024-23.955,0.004c-1.145,0.005-1.053-0.666-1.053-1.387
			c0.004-8.868,0.001-17.736,0-26.604c0-1.718,0.035-3.438-0.012-5.156c-0.024-0.877,0.226-1.246,1.219-1.241
			c7.702,0.033,15.404,0.028,23.106,0.006c0.865-0.002,1.253,0.25,1.229,1.134c-0.042,1.6-0.036,3.203,0.006,4.805
			c0.021,0.808-0.269,1.072-1.126,1.068c-4.997-0.028-9.995,0.22-14.989-0.063c-1.239-0.069-1.631,0.333-1.546,1.521
			c0.105,1.478,0.066,2.969,0.011,4.451c-0.034,0.878,0.3,1.149,1.189,1.144c4.557-0.032,9.114,0.012,13.671-0.033
			c1.04-0.009,1.449,0.267,1.385,1.32c-0.084,1.401-0.067,2.813-0.002,4.218c0.043,0.928-0.309,1.223-1.251,1.217
			c-4.518-0.032-9.034,0.018-13.55-0.032c-1.09-0.012-1.522,0.256-1.45,1.371c0.094,1.439,0.072,2.892,0.006,4.334
			c-0.043,0.934,0.3,1.212,1.251,1.205C104.925,187.751,109.925,187.772,115.044,187.773z"/>
		<path fill="#074A6D" d="M133.848,161.447c2.134,3.025,4.213,5.981,6.374,9.053c1.36-1.328,2.118-2.849,3.105-4.202
			c1.256-1.719,2.474-3.465,3.65-5.235c0.444-0.667,0.952-0.951,1.778-0.936c2.337,0.044,4.677,0.012,7.017,0.025
			c0.423,0.003,0.895-0.128,1.365,0.374c-0.881,1.195-1.766,2.426-2.678,3.636c-2.923,3.871-5.837,7.748-8.801,11.588
			c-0.573,0.744-0.493,1.247,0.057,1.947c3.951,5.025,7.868,10.077,11.785,15.13c0.33,0.426,0.752,0.814,0.856,1.388
			c-0.333,0.446-0.816,0.271-1.226,0.275c-2.339,0.018-4.679-0.029-7.017,0.026c-0.906,0.021-1.454-0.26-1.973-0.999
			c-2.424-3.446-4.92-6.848-7.395-10.263c-0.135-0.187-0.307-0.349-0.552-0.623c-2.078,2.946-4.332,5.718-6.085,8.76
			c-1.452,2.522-3.24,3.543-6.171,3.151c-1.721-0.229-3.501-0.042-5.23-0.042c-0.118-0.729,0.301-1.055,0.572-1.413
			c3.928-5.185,7.857-10.371,11.832-15.522c0.513-0.663,0.474-1.085-0.008-1.712c-3.675-4.793-7.319-9.607-10.974-14.414
			c-0.233-0.308-0.572-0.562-0.528-1.03c0.367-0.419,0.885-0.258,1.342-0.261c2.097-0.018,4.196,0.054,6.289-0.027
			C132.396,160.075,133.294,160.28,133.848,161.447z"/>
		<path fill="#074A6D" d="M172.978,161.167c0.002,10.653,0.004,21.194,0.004,31.736c0,1.592-0.006,1.593-1.662,1.595
			c-1.693,0.002-3.389-0.056-5.077,0.02c-1.115,0.05-1.44-0.333-1.435-1.397c0.038-8.278,0.021-16.555,0.021-24.831
			c0-2.344,0.021-4.686-0.008-7.027c-0.008-0.761,0.193-1.154,1.079-1.136c2.015,0.043,4.03,0.026,6.045,0.007
			C172.625,160.127,173.046,160.31,172.978,161.167z"/>
		<g id="fdab79a77e">
			
				<linearGradient id="SVGID_2_" gradientUnits="userSpaceOnUse" x1="541.6729" y1="-414.2109" x2="670.28" y2="-285.6038" gradientTransform="matrix(1 0 0 1 -479.3203 459.0801)">
				<stop  offset="0.0848" style="stop-color:#42AFE2"/>
				<stop  offset="0.2606" style="stop-color:#3E98D4"/>
				<stop  offset="1" style="stop-color:#074A6D"/>
			</linearGradient>
			<path fill="url(#SVGID_2_)" d="M197.8,156.813c-4.781,0.002-9.564-0.016-14.347,0.022c-0.744,0.006-1.204-0.298-1.632-0.808
				c-5.882-7.008-11.756-14.023-17.656-21.017c-5.198-6.16-10.425-12.295-15.648-18.433c-0.318-0.373-0.559-0.844-1.216-1.067
				c-1.744,1.173-2.893,3.011-4.322,4.563c-2.252,2.444-4.32,5.054-6.593,7.479c-0.841,0.9-0.572,1.44,0.055,2.167
				c3.445,4.005,6.882,8.017,10.314,12.029c4.111,4.809,8.218,9.624,12.323,14.438c0.083,0.1,0.115,0.238,0.165,0.344
				c-0.113,0.372-0.406,0.34-0.678,0.338c-7.308-0.023-14.617-0.084-21.926-0.046c-1.274,0.006-2.127-0.362-2.923-1.324
				c-3.253-3.925-6.571-7.798-9.867-11.689c-0.144-0.17-0.305-0.323-0.498-0.525c-1.057,0.437-1.593,1.381-2.268,2.132
				c-3.195,3.555-6.341,7.152-9.478,10.759c-0.4,0.459-0.801,0.648-1.409,0.648c-7.817,0.004-15.635,0.028-23.451,0.046
				c-0.313,0.001-0.624-0.049-1.269-0.104c1.282-1.5,2.397-2.824,3.532-4.13c6.653-7.668,13.29-15.351,19.993-22.977
				c1.005-1.142,1.067-1.894,0.049-3.072c-5.21-6.03-10.351-12.122-15.487-18.214c-5.666-6.718-11.299-13.462-16.951-20.191
				c-1.494-1.777-2.996-3.55-4.522-5.3c-0.347-0.396-0.642-0.89-1.275-1.066c-0.563,0.447-0.328,1.08-0.329,1.616
				c-0.013,21.879-0.011,43.758-0.012,65.636c0,2.221-0.021,4.439,0.012,6.659c0.012,0.805-0.282,1.148-1.115,1.146
				c-6.255-0.035-12.508-0.048-18.762-0.071c-0.178-0.001-0.354-0.057-0.51-0.082c-0.34-0.492-0.205-1.004-0.205-1.486
				c-0.008-32.161-0.007-64.322-0.006-96.482c0-1.905,0.004-1.907,1.977-1.908c7.128-0.001,14.258,0.016,21.386-0.019
				c1.053-0.005,1.794,0.279,2.486,1.101c5.286,6.257,10.616,12.479,15.938,18.706c5.766,6.746,11.54,13.485,17.307,20.232
				c1.212,1.417,2.407,2.848,3.674,4.348c3.575,4.189,7.089,8.304,10.548,12.356c0.819-0.08,1.064-0.639,1.398-1.027
				c3.209-3.728,6.375-7.491,9.593-11.209c0.694-0.802,0.724-1.401,0.03-2.229c-5.199-6.218-10.343-12.481-15.541-18.703
				c-6.131-7.336-12.3-14.644-18.448-21.968c-0.309-0.366-0.869-0.688-0.596-1.26c0.278-0.578,0.901-0.317,1.367-0.318
				c6.715-0.017,13.43,0.004,20.144-0.025c0.996-0.005,1.679,0.263,2.342,1.062c7.622,9.172,15.301,18.297,22.927,27.464
				c0.727,0.872,1.131,0.906,1.869,0.033c4.38-5.178,8.796-10.326,13.221-15.469c3.562-4.141,7.152-8.257,10.723-12.39
				c0.382-0.44,0.809-0.688,1.42-0.688c8.095,0.011,16.189,0.007,24.283,0.017c0.259,0,0.561-0.033,0.741,0.249
				c0.136,0.437-0.211,0.659-0.441,0.918c-5.962,6.64-11.937,13.267-17.886,19.916c-4.799,5.363-9.563,10.757-14.352,16.128
				c-1.727,1.937-3.455,3.872-5.231,5.764c-0.788,0.84-0.059,2.419-0.059,2.419l20.907,24.159l25.948,30.463"/>
		</g>
	</g>
</g>
</svg>
