<?xml version="1.0" encoding="utf-8"?>
<!-- Generator: Adobe Illustrator 14.0.0, SVG Export Plug-In . SVG Version: 6.00 Build 43363)  -->
<!DOCTYPE svg PUBLIC "-//W3C//DTD SVG 1.1//EN" "http://www.w3.org/Graphics/SVG/1.1/DTD/svg11.dtd">
<svg version="1.1" id="Layer_1" xmlns="http://www.w3.org/2000/svg" xmlns:xlink="http://www.w3.org/1999/xlink" x="0px" y="0px"
	 width="256px" height="256px" viewBox="0 0 256 256" enable-background="new 0 0 256 256" xml:space="preserve">
<g>
	<path fill="#010101" d="M238.122,178.338c-7.623,0.002-15.248-0.026-22.871,0.035c-1.187,0.009-1.919-0.482-2.601-1.307
		c-9.376-11.342-18.739-22.695-28.144-34.013c-8.286-9.968-16.618-19.897-24.944-29.832c-0.506-0.604-0.891-1.364-1.937-1.727
		c-2.781,1.899-4.612,4.873-6.892,7.385c-3.588,3.957-6.886,8.18-10.506,12.106c-1.342,1.455-0.914,2.329,0.084,3.507
		c5.492,6.479,10.97,12.971,16.442,19.467c6.555,7.784,13.1,15.574,19.642,23.367c0.134,0.16,0.188,0.387,0.266,0.555
		c-0.181,0.604-0.648,0.551-1.081,0.549c-11.649-0.041-23.3-0.135-34.948-0.075c-2.034,0.012-3.391-0.587-4.661-2.144
		c-5.186-6.353-10.474-12.62-15.727-18.917c-0.229-0.273-0.487-0.522-0.795-0.851c-1.683,0.705-2.539,2.235-3.614,3.45
		c-5.093,5.754-10.107,11.576-15.107,17.41c-0.637,0.744-1.276,1.05-2.247,1.05c-12.46,0.006-24.921,0.049-37.381,0.074
		c-0.497,0.003-0.993-0.078-2.02-0.165c2.043-2.43,3.821-4.571,5.63-6.686c10.605-12.409,21.182-24.844,31.867-37.183
		c1.601-1.85,1.701-3.067,0.08-4.974c-8.307-9.761-16.5-19.618-24.689-29.478c-9.03-10.872-18.009-21.788-27.018-32.677
		c-2.381-2.877-4.775-5.745-7.208-8.576c-0.551-0.641-1.022-1.44-2.033-1.728c-0.896,0.724-0.524,1.748-0.524,2.618
		c-0.021,35.408-0.018,70.814-0.018,106.223c0,3.593-0.035,7.185,0.017,10.775c0.019,1.303-0.449,1.861-1.777,1.854
		c-9.969-0.056-19.937-0.077-29.906-0.116c-0.283-0.001-0.565-0.089-0.812-0.131c-0.543-0.795-0.329-1.624-0.329-2.405
		C2.351,123.732,2.352,71.684,2.353,19.636c0-3.082,0.006-3.087,3.15-3.088c11.363-0.002,22.726,0.026,34.088-0.029
		c1.677-0.009,2.858,0.452,3.963,1.78c8.426,10.126,16.921,20.195,25.405,30.274c9.19,10.918,18.394,21.825,27.585,32.742
		c1.932,2.294,3.839,4.611,5.856,7.038c5.7,6.78,11.3,13.439,16.814,19.996c1.306-0.129,1.696-1.033,2.229-1.662
		c5.114-6.033,10.16-12.124,15.291-18.142c1.104-1.295,1.152-2.266,0.048-3.607c-8.289-10.063-16.487-20.2-24.772-30.267
		c-9.773-11.875-19.605-23.7-29.407-35.552c-0.491-0.595-1.385-1.117-0.949-2.041c0.444-0.935,1.437-0.514,2.18-0.515
		c10.702-0.027,21.405,0.006,32.108-0.041c1.587-0.007,2.674,0.426,3.733,1.719c12.149,14.842,24.389,29.609,36.545,44.445
		c1.158,1.412,1.801,1.467,2.978,0.055c6.982-8.381,14.022-16.712,21.073-25.035c5.677-6.7,11.401-13.362,17.094-20.05
		c0.607-0.713,1.289-1.113,2.262-1.112c12.902,0.018,25.805,0.012,38.706,0.025c0.415,0,0.894-0.052,1.185,0.404
		c0.215,0.707-0.338,1.068-0.706,1.485c-9.501,10.746-19.025,21.47-28.509,32.231c-7.649,8.68-15.242,17.408-22.875,26.102
		c-2.752,3.134-5.508,6.266-8.339,9.328c-1.256,1.359-0.095,3.914-0.095,3.914l33.326,39.1l41.36,49.3"/>
	<g>
		<path fill="#08496C" d="M45.823,239.326c-4.283,0.715-6.687-0.912-8.913-4.486c-6.805-10.929-14.118-21.549-21.229-32.291
			c-0.244-0.368-0.402-0.801-1.012-0.936c-0.601,0.593-0.328,1.383-0.33,2.074c-0.02,10.872-0.014,21.744-0.015,32.616
			c0,3.021-0.003,3.021-3.162,3.021c-2.378,0-4.758-0.053-7.133,0.021c-1.365,0.044-1.955-0.347-1.952-1.803
			c0.036-17.321,0.034-34.641,0.001-51.961c-0.002-1.383,0.455-1.904,1.888-1.878c3.984,0.067,7.971,0.093,11.954-0.008
			c1.484-0.037,2.357,0.503,3.124,1.683c5.288,8.137,10.617,16.248,15.94,24.36c2.053,3.128,4.128,6.241,6.462,9.768
			c0-0.991,0-1.57,0-2.149c0-10.431,0.035-20.86-0.037-31.29c-0.013-1.798,0.499-2.477,2.391-2.373
			c2.627,0.144,5.269,0.077,7.903,0.013c1.351-0.033,1.971,0.346,1.969,1.808c-0.037,17.32-0.034,34.641-0.003,51.96
			c0.003,1.366-0.413,1.948-1.871,1.877C49.875,239.256,47.943,239.327,45.823,239.326z"/>
		<path fill="#08496C" d="M224.937,202.378c0.064,4.603-0.602,4.03,3.843,4.05c6.747,0.028,13.496,0.062,20.243-0.024
			c1.716-0.022,2.261,0.521,2.173,2.171c-0.122,2.269-0.108,4.554-0.006,6.825c0.068,1.514-0.514,1.95-2.007,1.938
			c-7.326-0.059-14.653,0.026-21.979-0.059c-1.751-0.02-2.416,0.441-2.304,2.231c0.146,2.329,0.115,4.679,0.007,7.013
			c-0.07,1.521,0.496,1.953,2.002,1.942c8.161-0.057,16.324,0.027,24.485-0.063c1.901-0.021,2.659,0.447,2.509,2.423
			c-0.172,2.264-0.078,4.549-0.024,6.823c0.027,1.192-0.388,1.694-1.662,1.692c-12.725-0.029-25.449-0.032-38.174,0.002
			c-1.385,0.004-1.733-0.562-1.732-1.814c0.025-17.319,0.028-34.639-0.006-51.956c-0.002-1.379,0.436-1.874,1.879-1.868
			c12.467,0.044,24.936,0.039,37.402,0.013c1.259-0.002,1.914,0.316,1.88,1.695c-0.066,2.717-0.052,5.435-0.013,8.153
			c0.015,1.065-0.411,1.428-1.482,1.424c-7.838-0.023-15.674-0.004-23.511-0.001c-0.578,0.001-1.159,0.023-1.734-0.02
			c-1.281-0.098-1.888,0.348-1.813,1.726C225.01,198.521,224.937,200.358,224.937,202.378z"/>
		<path fill="#08496C" d="M105.968,228.442c2.837,0.027,2.842,0.027,2.848,2.58c0.005,2.214-0.032,4.427,0.015,6.639
			c0.026,1.194-0.415,1.682-1.683,1.68c-12.728-0.03-25.455-0.04-38.183,0.007c-1.825,0.007-1.677-1.079-1.677-2.246
			c0.005-14.351,0.001-28.703,0-43.054c0-2.781,0.055-5.564-0.02-8.345c-0.038-1.419,0.36-2.016,1.943-2.009
			c12.276,0.054,24.554,0.046,36.832,0.011c1.38-0.005,1.996,0.403,1.959,1.833c-0.068,2.591-0.057,5.185,0.008,7.775
			c0.034,1.308-0.427,1.735-1.794,1.729c-7.964-0.045-15.934,0.356-23.893-0.1c-1.976-0.112-2.599,0.54-2.464,2.462
			c0.168,2.392,0.106,4.805,0.016,7.204c-0.054,1.42,0.479,1.859,1.897,1.849c7.263-0.051,14.528,0.021,21.791-0.052
			c1.659-0.016,2.31,0.43,2.209,2.136c-0.136,2.269-0.108,4.555-0.005,6.826c0.068,1.501-0.492,1.979-1.994,1.969
			c-7.199-0.052-14.4,0.029-21.598-0.053c-1.738-0.02-2.427,0.415-2.311,2.22c0.149,2.33,0.114,4.68,0.008,7.014
			c-0.068,1.511,0.478,1.963,1.994,1.95C89.837,228.407,97.808,228.441,105.968,228.442z"/>
		<path fill="#08496C" d="M135.94,185.838c3.401,4.896,6.717,9.681,10.159,14.65c2.17-2.15,3.377-4.611,4.951-6.801
			c2.002-2.782,3.942-5.608,5.819-8.473c0.706-1.08,1.519-1.54,2.833-1.515c3.727,0.071,7.455,0.018,11.184,0.042
			c0.675,0.005,1.428-0.208,2.178,0.604c-1.403,1.937-2.814,3.928-4.271,5.885c-4.657,6.264-9.302,12.539-14.025,18.753
			c-0.915,1.204-0.787,2.019,0.088,3.15c6.3,8.134,12.543,16.311,18.786,24.485c0.526,0.689,1.199,1.318,1.364,2.245
			c-0.531,0.725-1.302,0.441-1.952,0.447c-3.729,0.029-7.458-0.047-11.185,0.043c-1.445,0.034-2.316-0.421-3.145-1.615
			c-3.864-5.58-7.842-11.083-11.786-16.609c-0.217-0.303-0.489-0.564-0.879-1.008c-3.314,4.769-6.908,9.251-9.7,14.175
			c-2.317,4.084-5.167,5.733-9.836,5.101c-2.743-0.372-5.581-0.068-8.339-0.068c-0.188-1.182,0.481-1.707,0.913-2.285
			c6.262-8.393,12.524-16.785,18.861-25.122c0.816-1.075,0.755-1.758-0.013-2.771c-5.859-7.756-11.667-15.548-17.492-23.327
			c-0.373-0.498-0.912-0.909-0.841-1.668c0.584-0.678,1.411-0.416,2.139-0.423c3.342-0.027,6.688,0.088,10.024-0.043
			C133.626,183.617,135.059,183.948,135.94,185.838z"/>
		<path fill="#08496C" d="M198.313,185.382c0.003,17.243,0.006,34.304,0.005,51.363c0,2.575-0.008,2.578-2.649,2.581
			c-2.697,0.004-5.4-0.09-8.093,0.032c-1.776,0.081-2.295-0.539-2.286-2.264c0.061-13.396,0.033-26.791,0.033-40.186
			c0-3.791,0.033-7.583-0.011-11.372c-0.014-1.232,0.308-1.867,1.719-1.838c3.211,0.07,6.424,0.044,9.637,0.011
			C197.75,183.7,198.423,183.996,198.313,185.382z"/>
	</g>
	<g id="fdab79a77e">
		
			<linearGradient id="SVGID_1_" gradientUnits="userSpaceOnUse" x1="211.2725" y1="-54.0332" x2="417.4871" y2="-260.2478" gradientTransform="matrix(1 0 0 -1 -189.6602 -55.96)">
			<stop  offset="0.0848" style="stop-color:#41AFE3"/>
			<stop  offset="0.2606" style="stop-color:#3C98D4"/>
			<stop  offset="1" style="stop-color:#08496C"/>
		</linearGradient>
		<path fill="url(#SVGID_1_)" d="M238.121,178.339c-7.622,0.003-15.246-0.026-22.87,0.035c-1.186,0.009-1.918-0.481-2.601-1.308
			c-9.375-11.34-18.739-22.695-28.143-34.012c-8.287-9.969-16.619-19.898-24.944-29.832c-0.507-0.605-0.892-1.366-1.937-1.729
			c-2.781,1.899-4.612,4.874-6.893,7.386c-3.588,3.957-6.885,8.18-10.506,12.107c-1.342,1.456-0.914,2.328,0.085,3.507
			c5.492,6.479,10.97,12.972,16.442,19.468c6.554,7.782,13.098,15.574,19.642,23.367c0.133,0.159,0.186,0.386,0.265,0.554
			c-0.181,0.604-0.648,0.551-1.081,0.549c-11.649-0.04-23.301-0.135-34.948-0.075c-2.033,0.011-3.391-0.587-4.661-2.144
			c-5.186-6.352-10.473-12.619-15.727-18.917c-0.228-0.273-0.485-0.522-0.794-0.851c-1.684,0.705-2.539,2.235-3.614,3.45
			c-5.093,5.753-10.108,11.576-15.107,17.41c-0.638,0.744-1.276,1.05-2.248,1.05c-12.459,0.007-24.921,0.049-37.381,0.076
			c-0.497,0.001-0.993-0.08-2.02-0.167c2.043-2.43,3.822-4.571,5.63-6.686c10.605-12.409,21.183-24.844,31.868-37.184
			c1.602-1.848,1.702-3.067,0.08-4.972c-8.306-9.762-16.5-19.62-24.688-29.479c-9.03-10.871-18.009-21.787-27.019-32.677
			c-2.381-2.877-4.775-5.745-7.208-8.576c-0.552-0.642-1.023-1.44-2.033-1.727c-0.896,0.723-0.523,1.747-0.525,2.617
			c-0.021,35.407-0.017,70.815-0.019,106.223c0,3.593-0.034,7.185,0.017,10.776c0.02,1.303-0.449,1.861-1.776,1.854
			c-9.97-0.057-19.938-0.076-29.907-0.116c-0.282-0.001-0.565-0.09-0.811-0.131c-0.544-0.796-0.33-1.624-0.33-2.406
			C2.35,123.734,2.352,71.685,2.353,19.637c0-3.082,0.006-3.087,3.15-3.088c11.363-0.001,22.727,0.025,34.089-0.029
			c1.677-0.009,2.858,0.452,3.963,1.78c8.426,10.125,16.922,20.195,25.405,30.273c9.189,10.918,18.393,21.825,27.585,32.743
			c1.933,2.294,3.839,4.61,5.856,7.038c5.7,6.779,11.301,13.438,16.813,19.996c1.306-0.128,1.697-1.033,2.229-1.661
			c5.114-6.033,10.16-12.124,15.289-18.143c1.107-1.295,1.154-2.267,0.05-3.607c-8.288-10.063-16.488-20.2-24.773-30.267
			c-9.772-11.874-19.605-23.7-29.405-35.552c-0.492-0.595-1.386-1.116-0.949-2.041c0.441-0.935,1.436-0.514,2.179-0.515
			c10.702-0.026,21.406,0.007,32.108-0.041c1.587-0.007,2.674,0.426,3.733,1.719c12.148,14.842,24.389,29.609,36.545,44.445
			c1.159,1.413,1.802,1.467,2.978,0.055c6.982-8.381,14.023-16.712,21.073-25.035c5.678-6.7,11.401-13.362,17.094-20.051
			c0.608-0.714,1.29-1.113,2.263-1.112c12.902,0.018,25.805,0.012,38.707,0.025c0.413,0,0.893-0.053,1.183,0.404
			c0.216,0.707-0.338,1.068-0.705,1.485c-9.502,10.746-19.025,21.47-28.509,32.232c-7.649,8.679-15.243,17.407-22.876,26.102
			c-2.752,3.134-5.508,6.266-8.339,9.327c-1.256,1.359-0.095,3.914-0.095,3.914l33.326,39.1l41.36,49.301"/>
	</g>
</g>
</svg>
