<?xml version="1.0" encoding="utf-8"?>
<!-- Generator: Adobe Illustrator 14.0.0, SVG Export Plug-In . SVG Version: 6.00 Build 43363)  -->
<!DOCTYPE svg PUBLIC "-//W3C//DTD SVG 1.1//EN" "http://www.w3.org/Graphics/SVG/1.1/DTD/svg11.dtd">
<svg version="1.1" id="Layer_1" xmlns="http://www.w3.org/2000/svg" xmlns:xlink="http://www.w3.org/1999/xlink" x="0px" y="0px"
	 width="180px" height="180px" viewBox="0 0 180 180" enable-background="new 0 0 180 180" xml:space="preserve">
<g id="fdab79a77e">
	
		<linearGradient id="SVGID_1_" gradientUnits="userSpaceOnUse" x1="205.3691" y1="-152.5615" x2="349.3711" y2="-296.5635" gradientTransform="matrix(1 0 0 -1 -189.6602 -131.96)">
		<stop  offset="0.0848" style="stop-color:#41AFE3"/>
		<stop  offset="0.2606" style="stop-color:#3C98D4"/>
		<stop  offset="1" style="stop-color:#08496C"/>
	</linearGradient>
	<path fill="url(#SVGID_1_)" d="M166.9,146.484c-5.324,0.002-10.647-0.019-15.972,0.024c-0.827,0.006-1.339-0.336-1.815-0.913
		c-6.547-7.919-13.086-15.849-19.653-23.751c-5.786-6.962-11.604-13.896-17.418-20.832c-0.354-0.423-0.623-0.953-1.354-1.207
		c-1.941,1.327-3.22,3.404-4.813,5.158c-2.506,2.763-4.808,5.711-7.337,8.453c-0.937,1.018-0.638,1.627,0.061,2.449
		c3.835,4.525,7.659,9.059,11.481,13.595c4.576,5.434,9.146,10.876,13.716,16.317c0.093,0.111,0.13,0.27,0.186,0.388
		c-0.127,0.421-0.453,0.384-0.756,0.382c-8.134-0.026-16.271-0.094-24.404-0.052c-1.42,0.008-2.368-0.409-3.255-1.496
		c-3.621-4.436-7.314-8.813-10.982-13.211c-0.16-0.191-0.339-0.365-0.555-0.594c-1.176,0.493-1.773,1.561-2.524,2.409
		c-3.557,4.018-7.059,8.083-10.55,12.158c-0.446,0.52-0.891,0.732-1.569,0.732c-8.701,0.005-17.403,0.034-26.104,0.053
		c-0.347,0.001-0.694-0.055-1.411-0.116c1.427-1.695,2.669-3.191,3.932-4.669c7.406-8.665,14.792-17.349,22.254-25.965
		c1.119-1.291,1.188-2.142,0.055-3.473c-5.8-6.815-11.521-13.7-17.24-20.585c-6.306-7.592-12.576-15.214-18.867-22.819
		c-1.663-2.009-3.334-4.011-5.034-5.989c-0.386-0.448-0.714-1.006-1.419-1.206c-0.626,0.505-0.366,1.221-0.367,1.828
		c-0.015,24.726-0.012,49.452-0.013,74.177c0,2.509-0.024,5.017,0.012,7.525c0.014,0.909-0.313,1.299-1.241,1.294
		c-6.961-0.039-13.922-0.053-20.884-0.08c-0.197-0.001-0.395-0.063-0.566-0.092c-0.379-0.556-0.23-1.134-0.23-1.681
		C2.257,108.353,2.258,72.006,2.259,35.66c0-2.152,0.004-2.156,2.2-2.156c7.935-0.001,15.87,0.017,23.805-0.021
		c1.171-0.006,1.996,0.315,2.768,1.244c5.883,7.07,11.816,14.102,17.74,21.14c6.417,7.625,12.844,15.241,19.263,22.865
		c1.35,1.603,2.68,3.22,4.09,4.915c3.98,4.734,7.891,9.384,11.741,13.963c0.912-0.089,1.184-0.722,1.557-1.159
		c3.571-4.214,7.095-8.467,10.677-12.67c0.772-0.905,0.806-1.583,0.034-2.519c-5.788-7.027-11.514-14.106-17.299-21.136
		C72.01,51.834,65.144,43.576,58.3,35.299c-0.344-0.416-0.968-0.779-0.663-1.425c0.309-0.653,1.002-0.359,1.521-0.36
		c7.474-0.019,14.948,0.004,22.421-0.028c1.109-0.005,1.868,0.297,2.607,1.2c8.484,10.365,17.032,20.677,25.521,31.037
		c0.809,0.986,1.257,1.024,2.079,0.038c4.875-5.853,9.792-11.67,14.716-17.482c3.964-4.679,7.961-9.331,11.937-14.001
		c0.425-0.499,0.9-0.777,1.58-0.777c9.009,0.012,18.02,0.008,27.029,0.018c0.289,0,0.624-0.037,0.826,0.282
		c0.15,0.493-0.236,0.746-0.493,1.037c-6.635,7.504-13.285,14.993-19.908,22.508c-5.342,6.061-10.645,12.156-15.974,18.227
		c-1.923,2.189-3.847,4.375-5.823,6.514c-0.878,0.949-0.066,2.733-0.066,2.733l23.271,27.304l28.883,34.427"/>
</g>
</svg>
