<?xml version="1.0" encoding="utf-8"?>
<!-- Generator: Adobe Illustrator 14.0.0, SVG Export Plug-In . SVG Version: 6.00 Build 43363)  -->
<!DOCTYPE svg PUBLIC "-//W3C//DTD SVG 1.1//EN" "http://www.w3.org/Graphics/SVG/1.1/DTD/svg11.dtd">
<svg version="1.1" id="Layer_1" xmlns="http://www.w3.org/2000/svg" xmlns:xlink="http://www.w3.org/1999/xlink" x="0px" y="0px"
	 width="1200px" height="800px" viewBox="0 0 1200 800" enable-background="new 0 0 1200 800" xml:space="preserve">
<g id="fdab79a77e">
	
		<linearGradient id="SVGID_1_" gradientUnits="userSpaceOnUse" x1="283.2441" y1="561.2568" x2="1266.3965" y2="-421.8955" gradientTransform="matrix(1 0 0 -1 -189.6602 488.04)">
		<stop  offset="0.0848" style="stop-color:#41AFE3"/>
		<stop  offset="0.2606" style="stop-color:#3C98D4"/>
		<stop  offset="1" style="stop-color:#08496C"/>
	</linearGradient>
	<path fill="url(#SVGID_1_)" d="M1125.818,786.222c-36.344,0.012-72.69-0.127-109.038,0.166c-5.653,0.041-9.143-2.293-12.397-6.231
		c-44.698-54.068-89.338-108.206-134.176-162.16c-39.506-47.525-79.232-94.862-118.924-142.224
		c-2.414-2.883-4.249-6.509-9.236-8.238c-13.256,9.058-21.985,23.237-32.857,35.213c-17.109,18.865-32.827,38.995-50.092,57.714
		c-6.396,6.942-4.354,11.105,0.408,16.725c26.185,30.888,52.3,61.84,78.389,92.812c31.246,37.103,62.448,74.254,93.646,111.408
		c0.634,0.757,0.889,1.84,1.261,2.642c-0.866,2.88-3.087,2.624-5.155,2.611c-55.536-0.185-111.084-0.643-166.619-0.354
		c-9.692,0.052-16.166-2.798-22.222-10.218c-24.723-30.285-49.933-60.17-74.979-90.193c-1.088-1.307-2.316-2.493-3.787-4.056
		c-8.029,3.366-12.104,10.661-17.232,16.45c-24.282,27.429-48.191,55.188-72.024,83.004c-3.043,3.547-6.085,5.009-10.714,5.009
		c-59.406,0.029-118.814,0.229-178.218,0.357c-2.367,0.009-4.737-0.376-9.632-0.794c9.741-11.58,18.22-21.792,26.842-31.877
		c50.563-59.158,100.992-118.44,151.936-177.273c7.635-8.813,8.11-14.622,0.376-23.706
		c-39.597-46.535-78.662-93.534-117.704-140.538c-43.052-51.832-85.862-103.875-128.815-155.793
		c-11.351-13.715-22.767-27.387-34.367-40.887c-2.632-3.06-4.879-6.868-9.691-8.233c-4.274,3.451-2.497,8.332-2.503,12.478
		c-0.099,168.808-0.082,337.619-0.088,506.428c0,17.131-0.165,34.256,0.082,51.38c0.092,6.208-2.139,8.867-8.471,8.837
		c-47.53-0.269-95.053-0.366-142.581-0.551c-1.346-0.007-2.696-0.432-3.868-0.627c-2.59-3.795-1.569-7.741-1.569-11.471
		C1.747,525.887,1.752,277.735,1.759,29.589c0-14.694,0.029-14.717,15.02-14.724c54.174-0.005,108.352,0.122,162.521-0.139
		c7.996-0.04,13.628,2.155,18.896,8.489c40.171,48.275,80.677,96.284,121.123,144.331c43.812,52.053,87.69,104.052,131.514,156.106
		c9.214,10.938,18.3,21.982,27.921,33.554c27.174,32.323,53.877,64.07,80.162,95.332c6.225-0.61,8.088-4.926,10.63-7.92
		c24.379-28.765,48.437-57.799,72.896-86.495c5.273-6.178,5.499-10.806,0.231-17.198c-39.517-47.976-78.608-96.306-118.108-144.302
		c-46.593-56.608-93.471-112.993-140.196-169.499c-2.347-2.835-6.605-5.318-4.524-9.728c2.107-4.458,6.847-2.449,10.388-2.456
		c51.025-0.127,102.056,0.031,153.081-0.195c7.572-0.036,12.752,2.031,17.798,8.197C619.034,93.705,677.39,164.11,735.347,234.84
		c5.522,6.734,8.588,6.996,14.198,0.262c33.286-39.957,66.854-79.68,100.469-119.358c27.068-31.945,54.356-63.706,81.492-95.594
		c2.901-3.405,6.152-5.306,10.793-5.302c61.51,0.082,123.025,0.053,184.537,0.119c1.972,0,4.258-0.25,5.642,1.927
		c1.026,3.368-1.616,5.091-3.366,7.078c-45.298,51.232-90.705,102.363-135.92,153.671c-36.468,41.38-72.675,82.994-109.063,124.442
		c-13.12,14.941-26.257,29.873-39.754,44.47c-5.99,6.478-0.452,18.661-0.452,18.661l158.885,186.412L1200,786.672"/>
</g>
</svg>
