<?xml version="1.0" encoding="utf-8"?>
<!-- Generator: Adobe Illustrator 14.0.0, SVG Export Plug-In . SVG Version: 6.00 Build 43363)  -->
<!DOCTYPE svg PUBLIC "-//W3C//DTD SVG 1.1//EN" "http://www.w3.org/Graphics/SVG/1.1/DTD/svg11.dtd">
<svg version="1.1" id="Layer_1" xmlns="http://www.w3.org/2000/svg" xmlns:xlink="http://www.w3.org/1999/xlink" x="0px" y="0px"
	 width="192px" height="192px" viewBox="0 0 192 192" enable-background="new 0 0 192 192" xml:space="preserve">
<g>
	<path fill="#08496C" d="M33.964,180.041c-3.232,0.539-5.047-0.688-6.728-3.387c-5.136-8.25-10.657-16.269-16.026-24.377
		c-0.183-0.278-0.303-0.604-0.764-0.707c-0.453,0.447-0.248,1.044-0.249,1.566c-0.015,8.207-0.011,16.415-0.012,24.623
		c0,2.279-0.001,2.28-2.387,2.281c-1.795,0-3.591-0.042-5.385,0.015c-1.03,0.032-1.475-0.264-1.473-1.362
		c0.027-13.075,0.025-26.149,0-39.225c-0.001-1.044,0.344-1.437,1.426-1.418c3.007,0.051,6.018,0.07,9.024-0.005
		c1.12-0.028,1.779,0.379,2.358,1.27c3.992,6.143,8.015,12.265,12.034,18.39c1.55,2.361,3.116,4.712,4.878,7.374
		c0-0.749,0-1.186,0-1.623c0-7.874,0.026-15.747-0.028-23.62c-0.01-1.357,0.376-1.87,1.804-1.792
		c1.983,0.107,3.978,0.058,5.966,0.009c1.02-0.024,1.488,0.262,1.486,1.365c-0.027,13.075-0.026,26.149-0.002,39.226
		c0.001,1.029-0.312,1.47-1.413,1.416C37.023,179.987,35.565,180.041,33.964,180.041z"/>
	<path fill="#08496C" d="M169.178,152.148c0.049,3.475-0.454,3.042,2.901,3.058c5.094,0.02,10.188,0.045,15.282-0.02
		c1.294-0.018,1.706,0.395,1.641,1.641c-0.093,1.711-0.083,3.437-0.006,5.15c0.052,1.144-0.387,1.473-1.515,1.463
		c-5.529-0.042-11.062,0.021-16.592-0.043c-1.321-0.015-1.823,0.333-1.739,1.684c0.111,1.759,0.088,3.532,0.007,5.294
		c-0.055,1.148,0.374,1.475,1.51,1.468c6.161-0.044,12.324,0.02,18.483-0.049c1.437-0.017,2.01,0.338,1.895,1.829
		c-0.129,1.708-0.059,3.435-0.018,5.15c0.021,0.899-0.293,1.279-1.255,1.277c-9.605-0.022-19.212-0.024-28.817,0.001
		c-1.046,0.004-1.31-0.423-1.308-1.369c0.019-13.074,0.021-26.147-0.005-39.222c-0.002-1.041,0.329-1.414,1.418-1.41
		c9.412,0.034,18.824,0.029,28.235,0.01c0.951-0.001,1.445,0.24,1.419,1.28c-0.05,2.051-0.038,4.103-0.009,6.154
		c0.011,0.804-0.311,1.077-1.12,1.075c-5.915-0.018-11.831-0.004-17.747-0.001c-0.438,0-0.876,0.02-1.31-0.015
		c-0.967-0.073-1.424,0.262-1.369,1.303C169.234,149.236,169.178,150.623,169.178,152.148z"/>
	<path fill="#08496C" d="M79.368,171.824c2.143,0.021,2.146,0.021,2.15,1.947c0.004,1.672-0.024,3.343,0.011,5.012
		c0.019,0.902-0.313,1.27-1.27,1.268c-9.609-0.023-19.216-0.03-28.825,0.005c-1.377,0.006-1.267-0.813-1.267-1.695
		c0.004-10.833,0.001-21.667,0-32.5c0-2.1,0.042-4.202-0.015-6.3c-0.028-1.071,0.272-1.522,1.466-1.517
		c9.268,0.041,18.537,0.034,27.805,0.008c1.042-0.003,1.507,0.305,1.48,1.384c-0.051,1.956-0.044,3.914,0.006,5.869
		c0.025,0.988-0.322,1.312-1.355,1.307c-6.012-0.035-12.027,0.269-18.036-0.075c-1.492-0.086-1.962,0.406-1.86,1.857
		c0.126,1.804,0.08,3.627,0.012,5.438c-0.041,1.072,0.361,1.405,1.432,1.396c5.483-0.038,10.967,0.016,16.45-0.039
		c1.252-0.013,1.744,0.325,1.667,1.613c-0.101,1.711-0.081,3.437-0.002,5.151c0.051,1.134-0.372,1.495-1.506,1.487
		c-5.435-0.04-10.87,0.021-16.304-0.04c-1.312-0.015-1.833,0.313-1.744,1.676c0.112,1.759,0.086,3.532,0.005,5.294
		c-0.052,1.141,0.361,1.481,1.505,1.474C67.19,171.798,73.208,171.823,79.368,171.824z"/>
	<path fill="#08496C" d="M101.995,139.662c2.567,3.696,5.07,7.308,7.669,11.06c1.638-1.624,2.549-3.481,3.737-5.134
		c1.512-2.1,2.977-4.233,4.395-6.396c0.532-0.815,1.146-1.163,2.137-1.144c2.814,0.054,5.629,0.014,8.443,0.032
		c0.509,0.003,1.078-0.156,1.644,0.455c-1.061,1.463-2.124,2.966-3.223,4.444c-3.517,4.729-7.023,9.465-10.589,14.156
		c-0.69,0.908-0.594,1.522,0.067,2.378c4.755,6.14,9.468,12.313,14.182,18.484c0.396,0.521,0.904,0.996,1.028,1.695
		c-0.399,0.546-0.98,0.332-1.474,0.337c-2.813,0.021-5.63-0.036-8.442,0.032c-1.091,0.025-1.749-0.317-2.374-1.219
		c-2.918-4.213-5.92-8.367-8.897-12.538c-0.163-0.229-0.369-0.427-0.663-0.764c-2.502,3.602-5.215,6.986-7.324,10.702
		c-1.747,3.083-3.898,4.328-7.424,3.851c-2.071-0.281-4.214-0.051-6.295-0.051c-0.142-0.892,0.363-1.289,0.689-1.727
		c4.727-6.335,9.455-12.67,14.238-18.964c0.616-0.811,0.57-1.326-0.01-2.093c-4.423-5.854-8.807-11.736-13.205-17.609
		c-0.281-0.376-0.688-0.687-0.635-1.26c0.441-0.511,1.065-0.313,1.614-0.318c2.523-0.021,5.049,0.066,7.567-0.032
		C100.248,137.985,101.328,138.235,101.995,139.662z"/>
	<path fill="#08496C" d="M149.08,139.317c0.002,13.018,0.005,25.896,0.005,38.774c0,1.943-0.007,1.945-2.001,1.949
		c-2.036,0.003-4.076-0.069-6.108,0.024c-1.342,0.061-1.733-0.408-1.726-1.71c0.045-10.111,0.025-20.225,0.025-30.336
		c0-2.862,0.023-5.725-0.009-8.585c-0.012-0.93,0.23-1.41,1.298-1.387c2.423,0.053,4.85,0.032,7.274,0.007
		C148.656,138.048,149.164,138.271,149.08,139.317z"/>
	<g id="fdab79a77e">
		
			<linearGradient id="SVGID_1_" gradientUnits="userSpaceOnUse" x1="205.166" y1="-117.8779" x2="360.838" y2="-273.5499" gradientTransform="matrix(1 0 0 -1 -189.6602 -119.96)">
			<stop  offset="0.0848" style="stop-color:#41AFE3"/>
			<stop  offset="0.2606" style="stop-color:#3C98D4"/>
			<stop  offset="1" style="stop-color:#08496C"/>
		</linearGradient>
		<path fill="url(#SVGID_1_)" d="M178.95,134.002c-5.756,0.002-11.51-0.021-17.266,0.026c-0.894,0.006-1.447-0.364-1.963-0.987
			c-7.077-8.562-14.146-17.134-21.246-25.676c-6.255-7.527-12.544-15.022-18.829-22.521c-0.384-0.457-0.674-1.03-1.464-1.304
			c-2.099,1.435-3.479,3.68-5.202,5.576c-2.709,2.987-5.197,6.174-7.931,9.139c-1.013,1.099-0.69,1.758,0.064,2.646
			c4.146,4.893,8.28,9.793,12.412,14.697c4.947,5.873,9.888,11.757,14.828,17.64c0.1,0.12,0.14,0.291,0.2,0.419
			c-0.138,0.455-0.49,0.415-0.817,0.412c-8.793-0.028-17.589-0.102-26.382-0.056c-1.535,0.009-2.561-0.441-3.519-1.617
			c-3.915-4.795-7.907-9.528-11.873-14.282c-0.173-0.206-0.367-0.394-0.6-0.641c-1.271,0.532-1.917,1.687-2.728,2.604
			c-3.845,4.343-7.631,8.738-11.405,13.144c-0.482,0.561-0.963,0.791-1.696,0.791c-9.406,0.005-18.813,0.037-28.219,0.057
			c-0.375,0.001-0.75-0.059-1.525-0.126c1.542-1.832,2.885-3.449,4.25-5.046c8.007-9.368,15.991-18.755,24.057-28.07
			c1.209-1.396,1.285-2.314,0.06-3.752c-6.27-7.369-12.455-14.812-18.637-22.254c-6.817-8.207-13.595-16.447-20.396-24.667
			c-1.797-2.172-3.604-4.336-5.442-6.474c-0.417-0.485-0.772-1.087-1.534-1.304c-0.677,0.546-0.396,1.32-0.396,1.976
			c-0.016,26.729-0.013,53.458-0.014,80.188c0,2.712-0.026,5.423,0.013,8.135c0.015,0.983-0.338,1.404-1.342,1.399
			c-7.525-0.042-15.05-0.058-22.576-0.087c-0.213-0.001-0.426-0.069-0.612-0.1c-0.411-0.601-0.249-1.225-0.249-1.816
			C0.965,92.78,0.965,53.488,0.966,14.196c0-2.327,0.004-2.331,2.378-2.331c8.578-0.001,17.156,0.019,25.734-0.022
			c1.266-0.007,2.157,0.341,2.992,1.344c6.36,7.644,12.774,15.245,19.178,22.853c6.938,8.243,13.885,16.476,20.824,24.718
			c1.459,1.732,2.898,3.48,4.421,5.313c4.302,5.118,8.531,10.145,12.693,15.095c0.985-0.096,1.28-0.78,1.683-1.253
			c3.861-4.555,7.67-9.152,11.542-13.696c0.836-0.979,0.872-1.711,0.038-2.724c-6.257-7.596-12.448-15.249-18.702-22.848
			c-7.378-8.963-14.8-17.891-22.199-26.838c-0.372-0.449-1.046-0.842-0.716-1.541c0.333-0.705,1.083-0.388,1.645-0.389
			c8.079-0.02,16.16,0.005,24.239-0.031c1.199-0.005,2.02,0.322,2.818,1.298c9.172,11.204,18.411,22.352,27.589,33.551
			c0.874,1.067,1.358,1.108,2.247,0.042c5.271-6.327,10.586-12.616,15.908-18.899c4.286-5.058,8.607-10.087,12.905-15.136
			c0.459-0.54,0.973-0.841,1.707-0.84c9.739,0.013,19.48,0.009,29.22,0.02c0.313,0,0.675-0.04,0.895,0.305
			c0.162,0.533-0.256,0.806-0.533,1.121c-7.173,8.112-14.363,16.208-21.522,24.332c-5.774,6.552-11.507,13.141-17.269,19.704
			c-2.078,2.366-4.157,4.73-6.295,7.042c-0.948,1.025-0.072,2.955-0.072,2.955l25.158,29.515l31.224,37.218"/>
	</g>
</g>
</svg>
