<?xml version="1.0" encoding="utf-8"?>
<!-- Generator: Adobe Illustrator 14.0.0, SVG Export Plug-In . SVG Version: 6.00 Build 43363)  -->
<!DOCTYPE svg PUBLIC "-//W3C//DTD SVG 1.1//EN" "http://www.w3.org/Graphics/SVG/1.1/DTD/svg11.dtd">
<svg version="1.1" id="Layer_1" xmlns="http://www.w3.org/2000/svg" xmlns:xlink="http://www.w3.org/1999/xlink" x="0px" y="0px"
	 width="1200px" height="1055px" viewBox="0 0 1200 1055" enable-background="new 0 0 1200 1055" xml:space="preserve">
<g>
	<path fill="#010101" d="M1120.05,765.737c-36.082,0.009-72.166-0.122-108.246,0.166c-5.615,0.042-9.078-2.28-12.309-6.184
		c-44.374-53.676-88.685-107.414-133.2-160.974c-39.212-47.18-78.648-94.171-118.053-141.19c-2.396-2.861-4.216-6.455-9.17-8.173
		c-13.158,8.988-21.827,23.063-32.614,34.955c-16.984,18.726-32.591,38.711-49.726,57.292c-6.35,6.887-4.325,11.024,0.402,16.601
		c25.993,30.663,51.918,61.386,77.815,92.136c31.021,36.834,61.998,73.709,92.962,110.592c0.636,0.754,0.89,1.829,1.257,2.621
		c-0.859,2.859-3.068,2.607-5.116,2.599c-55.135-0.188-110.274-0.64-165.405-0.352c-9.625,0.049-16.048-2.781-22.062-10.146
		c-24.54-30.066-49.569-59.731-74.431-89.533c-1.082-1.296-2.304-2.472-3.762-4.023c-7.968,3.338-12.017,10.58-17.106,16.326
		c-24.104,27.229-47.837,54.788-71.5,82.402c-3.017,3.521-6.039,4.967-10.633,4.968c-58.973,0.025-117.947,0.231-176.92,0.354
		c-2.35,0.007-4.7-0.374-9.56-0.785c9.671-11.496,18.086-21.634,26.648-31.645c50.194-58.729,100.251-117.58,150.826-175.979
		c7.577-8.751,8.051-14.516,0.376-23.538c-39.313-46.195-78.091-92.846-116.847-139.51
		c-42.739-51.456-85.233-103.117-127.873-154.653c-11.268-13.618-22.599-27.188-34.116-40.591c-2.609-3.035-4.839-6.816-9.621-8.176
		c-4.244,3.425-2.48,8.271-2.482,12.388c-0.098,167.577-0.083,335.152-0.086,502.733c0,17.001-0.167,34.004,0.079,51.001
		c0.09,6.162-2.122,8.803-8.413,8.771c-47.178-0.262-94.358-0.361-141.537-0.548c-1.341-0.006-2.678-0.424-3.844-0.62
		c-2.567-3.763-1.552-7.686-1.552-11.384C4.181,507.302,4.185,260.966,4.192,14.632c0-14.586,0.028-14.611,14.91-14.614
		C72.88,0.009,126.659,0.14,180.433-0.123c7.939-0.04,13.528,2.142,18.759,8.426c39.879,47.924,80.085,95.581,120.235,143.279
		c43.497,51.673,87.054,103.294,130.559,154.963c9.146,10.861,18.166,21.824,27.716,33.31
		c26.976,32.087,53.481,63.604,79.578,94.638c6.179-0.61,8.028-4.887,10.552-7.866c24.202-28.553,48.083-57.379,72.368-85.862
		c5.23-6.133,5.452-10.724,0.225-17.071c-39.229-47.629-78.031-95.605-117.242-143.247
		c-46.257-56.201-92.791-112.169-139.177-168.261c-2.327-2.816-6.559-5.285-4.491-9.657c2.098-4.424,6.8-2.43,10.313-2.438
		c50.653-0.127,101.308,0.029,151.964-0.196c7.516-0.033,12.657,2.016,17.668,8.137c57.499,70.246,115.428,140.136,172.965,210.351
		c5.479,6.685,8.52,6.945,14.092,0.258c33.042-39.663,66.363-79.097,99.734-118.485c26.87-31.713,53.964-63.239,80.902-94.897
		c2.876-3.377,6.102-5.269,10.708-5.262c61.063,0.083,122.126,0.057,183.188,0.116c1.963,0.002,4.231-0.247,5.604,1.915
		c1.019,3.344-1.6,5.054-3.341,7.025c-44.965,50.861-90.046,101.617-134.931,152.548c-36.202,41.08-72.139,82.388-108.263,123.535
		c-13.023,14.833-26.066,29.656-39.465,44.148c-5.945,6.432-0.446,18.521-0.446,18.521L997.932,532.86l195.756,233.327"/>
	<path fill="#08496C" d="M211.07,1054.388c-20.271,3.382-31.649-4.319-42.183-21.236c-32.205-51.72-66.816-101.985-100.473-152.828
		c-1.151-1.739-1.903-3.788-4.788-4.424c-2.844,2.802-1.551,6.544-1.558,9.811c-0.095,51.458-0.066,102.917-0.072,154.371
		c-0.002,14.296-0.011,14.299-14.965,14.303c-11.254,0.001-22.518-0.254-33.762,0.097c-6.458,0.204-9.251-1.646-9.238-8.533
		c0.17-81.976,0.159-163.949,0.006-245.923c-0.012-6.545,2.151-9.011,8.937-8.891c18.855,0.32,37.726,0.441,56.573-0.033
		c7.026-0.176,11.158,2.379,14.788,7.964c25.022,38.507,50.246,76.894,75.442,115.292c9.714,14.804,19.535,29.539,30.584,46.23
		c0-4.691,0-7.434,0-10.176c-0.002-49.367,0.167-98.729-0.175-148.092c-0.059-8.505,2.359-11.721,11.313-11.23
		c12.434,0.678,24.939,0.367,37.403,0.061c6.395-0.155,9.33,1.638,9.318,8.556c-0.169,81.974-0.161,163.949-0.015,245.921
		c0.012,6.46-1.954,9.22-8.854,8.878C230.248,1054.055,221.105,1054.391,211.07,1054.388z"/>
	<path fill="#08496C" d="M1058.783,879.514c0.304,21.79-2.845,19.078,18.188,19.168c31.936,0.133,63.876,0.288,95.81-0.116
		c8.12-0.105,10.7,2.472,10.284,10.28c-0.578,10.736-0.513,21.547-0.029,32.296c0.326,7.166-2.431,9.233-9.498,9.178
		c-34.673-0.273-69.352,0.122-104.021-0.274c-8.283-0.095-11.435,2.083-10.904,10.558c0.693,11.024,0.548,22.142,0.037,33.188
		c-0.336,7.2,2.349,9.247,9.475,9.195c38.626-0.27,77.257,0.131,115.88-0.301c9.005-0.101,12.589,2.12,11.877,11.467
		c-0.813,10.712-0.366,21.531-0.116,32.294c0.13,5.64-1.837,8.02-7.865,8.008c-60.224-0.137-120.446-0.151-180.671,0.009
		c-6.556,0.019-8.205-2.655-8.196-8.59c0.119-81.968,0.132-163.933-0.031-245.899c-0.009-6.524,2.064-8.865,8.892-8.839
		c59.005,0.212,118.018,0.186,177.021,0.063c5.955-0.011,9.06,1.497,8.897,8.023c-0.312,12.855-0.246,25.722-0.063,38.587
		c0.072,5.042-1.941,6.756-7.016,6.739c-37.091-0.113-74.18-0.022-111.269-0.004c-2.738,0.002-5.488,0.113-8.209-0.094
		c-6.066-0.458-8.934,1.646-8.583,8.164C1059.135,861.264,1058.786,869.956,1058.783,879.514z"/>
	<path fill="#08496C" d="M495.726,1002.873c13.432,0.128,13.453,0.128,13.481,12.217c0.026,10.471-0.152,20.948,0.069,31.415
		c0.122,5.654-1.964,7.961-7.963,7.949c-60.238-0.141-120.475-0.19-180.714,0.03c-8.637,0.034-7.94-5.101-7.94-10.626
		c0.022-67.922,0.007-135.845,0-203.767c0-13.165,0.262-26.338-0.093-39.494c-0.181-6.716,1.706-9.541,9.194-9.509
		c58.104,0.257,116.212,0.217,174.321,0.051c6.53-0.021,9.45,1.909,9.275,8.675c-0.319,12.26-0.272,24.54,0.039,36.8
		c0.159,6.191-2.019,8.218-8.49,8.184c-37.694-0.212-75.409,1.688-113.081-0.47c-9.35-0.532-12.3,2.55-11.662,11.647
		c0.793,11.32,0.503,22.74,0.078,34.096c-0.254,6.719,2.262,8.803,8.976,8.752c34.376-0.241,68.758,0.096,103.132-0.244
		c7.85-0.077,10.933,2.034,10.452,10.108c-0.639,10.733-0.51,21.551-0.02,32.302c0.323,7.105-2.328,9.374-9.44,9.323
		c-34.073-0.248-68.15,0.135-102.219-0.252c-8.222-0.092-11.487,1.964-10.937,10.505c0.708,11.024,0.543,22.147,0.041,33.193
		c-0.325,7.151,2.26,9.289,9.436,9.233C419.379,1002.708,457.104,1002.869,495.726,1002.873z"/>
	<path fill="#08496C" d="M637.58,801.233c16.098,23.174,31.79,45.819,48.085,69.337c10.268-10.175,15.98-21.822,23.433-32.182
		c9.474-13.17,18.659-26.546,27.542-40.105c3.344-5.107,7.184-7.285,13.408-7.166c17.636,0.339,35.283,0.084,52.929,0.202
		c3.193,0.02,6.756-0.986,10.306,2.856c-6.643,9.164-13.319,18.588-20.209,27.854c-22.044,29.646-44.023,59.344-66.381,88.754
		c-4.33,5.695-3.728,9.552,0.42,14.909c29.81,38.496,59.357,77.194,88.909,115.886c2.49,3.266,5.674,6.24,6.454,10.629
		c-2.513,3.426-6.158,2.084-9.24,2.113c-17.646,0.137-35.297-0.226-52.93,0.203c-6.844,0.164-10.965-1.988-14.885-7.645
		c-18.291-26.408-37.117-52.455-55.785-78.608c-1.021-1.435-2.313-2.674-4.156-4.773c-15.683,22.571-32.693,43.788-45.913,67.091
		c-10.963,19.326-24.448,27.136-46.55,24.139c-12.984-1.763-26.417-0.321-39.468-0.321c-0.886-5.595,2.277-8.08,4.321-10.818
		c29.634-39.721,59.276-79.438,89.262-118.898c3.866-5.085,3.576-8.314-0.058-13.119c-27.729-36.701-55.217-73.584-82.789-110.403
		c-1.763-2.355-4.314-4.3-3.979-7.891c2.766-3.209,6.675-1.971,10.119-2.001c15.819-0.128,31.653,0.418,47.447-0.206
		C626.626,790.722,633.408,792.293,637.58,801.233z"/>
	<path fill="#08496C" d="M932.781,799.079c0.016,81.607,0.03,162.351,0.027,243.09c-0.001,12.189-0.037,12.203-12.541,12.219
		c-12.769,0.019-25.559-0.429-38.301,0.151c-8.409,0.384-10.86-2.551-10.819-10.714c0.288-63.398,0.158-126.795,0.159-190.19
		c0-17.944,0.153-35.888-0.053-53.825c-0.068-5.831,1.45-8.837,8.137-8.694c15.193,0.329,30.402,0.205,45.605,0.051
		C930.119,791.117,933.301,792.521,932.781,799.079z"/>
	<g id="fdab79a77e">
		
			<linearGradient id="SVGID_1_" gradientUnits="userSpaceOnUse" x1="285.0034" y1="829.4619" x2="1260.9836" y2="-146.5183" gradientTransform="matrix(1 0 0 -1 -189.6602 742.04)">
			<stop  offset="0.0848" style="stop-color:#41AFE3"/>
			<stop  offset="0.2606" style="stop-color:#3C98D4"/>
			<stop  offset="1" style="stop-color:#08496C"/>
		</linearGradient>
		<path fill="url(#SVGID_1_)" d="M1120.048,765.743c-36.08,0.012-72.161-0.123-108.244,0.167c-5.611,0.041-9.075-2.276-12.306-6.187
			c-44.373-53.674-88.688-107.415-133.199-160.976c-39.216-47.18-78.652-94.171-118.055-141.186
			c-2.396-2.863-4.218-6.461-9.168-8.18c-13.16,8.992-21.826,23.067-32.618,34.957c-16.984,18.728-32.587,38.711-49.726,57.294
			c-6.35,6.89-4.323,11.023,0.404,16.6c25.994,30.663,51.918,61.391,77.818,92.136c31.017,36.832,61.991,73.712,92.961,110.595
			c0.632,0.752,0.883,1.826,1.253,2.622c-0.859,2.859-3.065,2.605-5.116,2.594c-55.133-0.184-110.276-0.639-165.405-0.352
			c-9.621,0.05-16.048-2.778-22.06-10.145c-24.542-30.063-49.569-59.73-74.433-89.534c-1.08-1.297-2.3-2.474-3.759-4.025
			c-7.971,3.34-12.016,10.582-17.107,16.33c-24.104,27.228-47.839,54.784-71.499,82.398c-3.021,3.521-6.041,4.972-10.635,4.972
			c-58.973,0.027-117.947,0.227-176.917,0.355c-2.351,0.008-4.703-0.374-9.563-0.79c9.669-11.494,18.087-21.632,26.646-31.643
			c50.194-58.727,100.256-117.578,150.827-175.98c7.58-8.749,8.052-14.516,0.375-23.534
			c-39.309-46.195-78.089-92.85-116.845-139.513c-42.739-51.453-85.235-103.116-127.875-154.655
			c-11.268-13.615-22.601-27.188-34.116-40.589c-2.613-3.038-4.843-6.818-9.621-8.173c-4.244,3.425-2.479,8.271-2.484,12.387
			c-0.098,167.576-0.082,335.155-0.088,502.732c0,17.006-0.163,34.007,0.081,51.006c0.092,6.162-2.122,8.804-8.409,8.772
			c-47.183-0.267-94.359-0.363-141.541-0.547c-1.337-0.006-2.676-0.43-3.839-0.622c-2.572-3.767-1.558-7.686-1.558-11.388
			C4.177,507.31,4.183,260.969,4.188,14.634c0-14.588,0.03-14.61,14.911-14.616c53.778-0.005,107.562,0.12,161.335-0.139
			c7.937-0.039,13.529,2.14,18.757,8.429c39.877,47.921,80.089,95.58,120.239,143.277c43.493,51.673,87.05,103.293,130.555,154.968
			c9.147,10.858,18.166,21.82,27.718,33.308c26.976,32.086,53.483,63.602,79.576,94.637c6.179-0.606,8.03-4.89,10.552-7.862
			c24.202-28.554,48.085-57.377,72.366-85.864c5.234-6.132,5.458-10.728,0.229-17.072c-39.228-47.626-78.036-95.604-117.247-143.249
			c-46.253-56.196-92.789-112.169-139.173-168.262c-2.33-2.815-6.557-5.281-4.491-9.657c2.092-4.426,6.796-2.432,10.312-2.438
			c50.653-0.126,101.311,0.03,151.964-0.195c7.516-0.036,12.659,2.017,17.668,8.137c57.5,70.245,115.43,140.136,172.965,210.351
			c5.481,6.686,8.525,6.946,14.094,0.26c33.044-39.666,66.365-79.099,99.736-118.488c26.87-31.712,53.96-63.24,80.898-94.896
			c2.88-3.379,6.105-5.267,10.712-5.263c61.062,0.081,122.127,0.052,183.191,0.118c1.957,0,4.229-0.249,5.598,1.913
			c1.021,3.343-1.601,5.054-3.339,7.026c-44.968,50.859-90.043,101.617-134.927,152.551
			c-36.203,41.078-72.146,82.388-108.268,123.534c-13.025,14.831-26.066,29.655-39.465,44.146
			c-5.947,6.43-0.448,18.524-0.448,18.524l157.724,185.053l195.756,233.33"/>
	</g>
</g>
</svg>
