<?xml version="1.0" encoding="utf-8"?>
<!-- Generator: Adobe Illustrator 14.0.0, SVG Export Plug-In . SVG Version: 6.00 Build 43363)  -->
<!DOCTYPE svg PUBLIC "-//W3C//DTD SVG 1.1//EN" "http://www.w3.org/Graphics/SVG/1.1/DTD/svg11.dtd">
<svg version="1.1" id="Layer_1" xmlns="http://www.w3.org/2000/svg" xmlns:xlink="http://www.w3.org/1999/xlink" x="0px" y="0px"
	 width="1200px" height="1200px" viewBox="0 0 1200 1200" enable-background="new 0 0 1200 1200" xml:space="preserve">
<g>
	<linearGradient id="SVGID_1_" gradientUnits="userSpaceOnUse" x1="175.9751" y1="176.9297" x2="1024.1166" y2="1025.0712">
		<stop  offset="0" style="stop-color:#48A9DF"/>
		<stop  offset="1" style="stop-color:#06486B"/>
	</linearGradient>
	<path fill="url(#SVGID_1_)" d="M1134.442,792.698h34.209C1088.516,1029.813,863.901,1201,600.047,1201
		c-263.859,0-488.469-171.188-568.609-408.302h34.209c78.775,218.994,288.599,376,534.4,376
		C845.844,1168.698,1055.667,1011.692,1134.442,792.698z M600.047,33.302c245.797,0,455.62,157.005,534.396,376h34.209
		C1088.516,172.188,863.901,1,600.047,1C336.188,1,111.578,172.188,31.438,409.302h34.209
		C144.422,190.307,354.245,33.302,600.047,33.302z M600.047,1140.922c-230.234,0-427.297-144.864-504.75-348.224H84.604
		c77.975,208.979,279.589,358.203,515.443,358.203c235.849,0,437.464-149.225,515.438-358.203h-10.692
		C1027.339,996.058,830.276,1140.922,600.047,1140.922z M600.047,51.099c-235.854,0-437.469,149.224-515.443,358.203h10.693
		C172.75,205.943,369.813,61.078,600.047,61.078c230.229,0,427.292,144.865,504.745,348.224h10.692
		C1037.511,200.323,835.896,51.099,600.047,51.099z"/>
</g>
<g>
	<path fill="#010101" d="M924.375,736.93c-22.223,0.006-44.448-0.074-66.67,0.101c-3.459,0.026-5.592-1.403-7.581-3.807
		c-27.331-33.062-54.622-66.159-82.039-99.146c-24.151-29.058-48.441-58.001-72.711-86.961c-1.476-1.762-2.597-3.976-5.648-5.034
		c-8.103,5.536-13.442,14.205-20.087,21.53c-10.461,11.533-20.073,23.842-30.627,35.286c-3.911,4.241-2.663,6.79,0.248,10.224
		c16.01,18.886,31.977,37.809,47.928,56.747c19.105,22.688,38.186,45.397,57.257,68.116c0.391,0.463,0.548,1.126,0.774,1.615
		c-0.53,1.76-1.891,1.604-3.153,1.599c-33.958-0.114-67.917-0.395-101.874-0.215c-5.929,0.029-9.884-1.714-13.588-6.252
		c-15.114-18.517-30.531-36.789-45.843-55.143c-0.667-0.798-1.418-1.522-2.317-2.479c-4.908,2.057-7.402,6.517-10.537,10.056
		c-14.846,16.771-29.462,33.746-44.038,50.753c-1.858,2.169-3.719,3.059-6.549,3.061c-36.322,0.015-72.645,0.142-108.967,0.218
		c-1.447,0.004-2.895-0.229-5.888-0.483c5.957-7.08,11.14-13.325,16.413-19.49c30.915-36.173,61.746-72.419,92.895-108.388
		c4.667-5.39,4.959-8.939,0.232-14.498c-24.213-28.452-48.097-57.185-71.968-85.925c-26.323-31.693-52.496-63.511-78.758-95.253
		c-6.94-8.388-13.919-16.745-21.013-25c-1.606-1.87-2.98-4.199-5.925-5.036c-2.613,2.109-1.528,5.095-1.529,7.63
		c-0.061,103.212-0.051,206.424-0.053,309.641c0,10.47-0.103,20.941,0.049,31.412c0.055,3.794-1.307,5.421-5.182,5.4
		c-29.058-0.161-58.117-0.221-87.174-0.336c-0.826-0.004-1.649-0.262-2.367-0.383c-1.581-2.317-0.956-4.732-0.956-7.01
		c-0.031-151.723-0.029-303.444-0.025-455.165c0-8.983,0.018-8.999,9.183-9c33.123-0.006,66.247,0.074,99.366-0.087
		c4.89-0.024,8.333,1.319,11.555,5.189c24.563,29.517,49.325,58.87,74.054,88.248c26.791,31.827,53.618,63.621,80.413,95.444
		c5.633,6.69,11.188,13.442,17.071,20.516c16.615,19.763,32.94,39.174,49.014,58.289c3.805-0.376,4.943-3.01,6.499-4.845
		c14.907-17.586,29.616-35.34,44.572-52.884c3.223-3.777,3.358-6.604,0.14-10.514c-24.162-29.335-48.062-58.883-72.211-88.228
		c-28.491-34.615-57.152-69.086-85.721-103.634c-1.434-1.734-4.04-3.254-2.767-5.947c1.292-2.725,4.188-1.497,6.353-1.501
		c31.198-0.079,62.397,0.017,93.596-0.121c4.629-0.021,7.795,1.242,10.882,5.012c35.414,43.265,71.093,86.311,106.533,129.557
		c3.374,4.117,5.246,4.278,8.678,0.159c20.352-24.429,40.875-48.717,61.428-72.976c16.55-19.532,33.237-38.95,49.829-58.449
		c1.771-2.08,3.758-3.244,6.596-3.241c37.609,0.051,75.218,0.035,112.828,0.072c1.208,0.001,2.605-0.152,3.45,1.179
		c0.628,2.06-0.984,3.113-2.057,4.327c-27.694,31.326-55.46,62.588-83.104,93.956c-22.298,25.302-44.432,50.744-66.683,76.087
		c-8.021,9.137-16.054,18.266-24.306,27.192c-3.662,3.961-0.276,11.408-0.276,11.408l97.146,113.976l120.567,143.708"/>
	<path fill="#08496C" d="M364.522,914.713c-12.486,2.082-19.494-2.66-25.981-13.08c-19.835-31.855-41.153-62.814-61.882-94.13
		c-0.709-1.069-1.172-2.332-2.949-2.725c-1.751,1.728-0.955,4.031-0.959,6.044c-0.059,31.693-0.042,63.388-0.045,95.08
		c-0.001,8.805-0.006,8.807-9.217,8.809c-6.932,0.002-13.869-0.157-20.794,0.058c-3.978,0.127-5.698-1.013-5.689-5.256
		c0.105-50.489,0.098-100.977,0.003-151.466c-0.007-4.029,1.325-5.55,5.504-5.476c11.613,0.197,23.236,0.271,34.844-0.021
		c4.328-0.108,6.873,1.467,9.108,4.906c15.411,23.717,30.947,47.357,46.465,71.008c5.983,9.119,12.031,18.195,18.837,28.475
		c0-2.891,0-4.578,0-6.268c-0.001-30.405,0.103-60.809-0.108-91.211c-0.036-5.238,1.453-7.22,6.967-6.918
		c7.659,0.417,15.361,0.228,23.038,0.038c3.938-0.097,5.746,1.009,5.739,5.271c-0.104,50.487-0.1,100.977-0.009,151.464
		c0.007,3.979-1.203,5.679-5.454,5.47C376.334,914.507,370.703,914.715,364.522,914.713z"/>
	<path fill="#08496C" d="M886.641,807.006c0.186,13.42-1.753,11.751,11.2,11.805c19.671,0.083,39.343,0.18,59.012-0.07
		c5.001-0.066,6.59,1.522,6.334,6.332c-0.356,6.611-0.315,13.271-0.018,19.891c0.2,4.414-1.497,5.687-5.851,5.652
		c-21.354-0.167-42.715,0.075-64.067-0.169c-5.102-0.059-7.043,1.283-6.716,6.503c0.428,6.791,0.337,13.638,0.022,20.44
		c-0.206,4.435,1.446,5.695,5.835,5.665c23.79-0.167,47.584,0.081,71.372-0.186c5.547-0.063,7.754,1.306,7.315,7.063
		c-0.5,6.596-0.226,13.262-0.071,19.89c0.08,3.474-1.132,4.939-4.845,4.932c-37.092-0.085-74.185-0.093-111.276,0.006
		c-4.039,0.013-5.054-1.635-5.049-5.29c0.073-50.485,0.082-100.969-0.019-151.452c-0.007-4.02,1.271-5.46,5.476-5.443
		c36.342,0.129,72.688,0.112,109.029,0.038c3.669-0.006,5.581,0.923,5.48,4.942c-0.191,7.916-0.151,15.843-0.038,23.766
		c0.045,3.104-1.196,4.16-4.322,4.15c-22.844-0.07-45.688-0.015-68.531-0.002c-1.686,0-3.381,0.07-5.056-0.059
		c-3.737-0.282-5.502,1.013-5.287,5.028C886.856,795.767,886.642,801.119,886.641,807.006z"/>
	<path fill="#08496C" d="M539.845,882.984c8.274,0.078,8.286,0.078,8.304,7.523c0.016,6.45-0.095,12.903,0.042,19.35
		c0.074,3.483-1.21,4.903-4.905,4.896c-37.101-0.087-74.203-0.117-111.304,0.019c-5.32,0.021-4.89-3.143-4.89-6.544
		c0.014-41.833,0.003-83.669,0-125.503c0-8.107,0.162-16.222-0.058-24.323c-0.112-4.137,1.05-5.879,5.663-5.858
		c35.787,0.159,71.577,0.135,107.367,0.032c4.021-0.012,5.82,1.176,5.712,5.343c-0.197,7.552-0.168,15.114,0.024,22.666
		c0.098,3.813-1.244,5.061-5.23,5.041c-23.216-0.132-46.444,1.039-69.647-0.29c-5.759-0.329-7.576,1.57-7.183,7.173
		c0.489,6.972,0.31,14.007,0.048,21.001c-0.157,4.138,1.394,5.421,5.529,5.391c21.172-0.149,42.349,0.059,63.521-0.151
		c4.834-0.046,6.733,1.253,6.437,6.228c-0.393,6.609-0.314,13.271-0.012,19.893c0.2,4.378-1.434,5.775-5.814,5.743
		c-20.986-0.152-41.975,0.083-62.958-0.154c-5.064-0.057-7.075,1.21-6.736,6.47c0.436,6.791,0.334,13.64,0.024,20.443
		c-0.2,4.406,1.393,5.721,5.812,5.688C492.823,882.884,516.058,882.982,539.845,882.984z"/>
	<path fill="#08496C" d="M627.216,758.792c9.915,14.272,19.579,28.22,29.616,42.706c6.323-6.268,9.843-13.44,14.433-19.822
		c5.835-8.11,11.492-16.349,16.964-24.702c2.059-3.144,4.423-4.487,8.258-4.412c10.861,0.209,21.731,0.052,32.599,0.124
		c1.968,0.013,4.162-0.607,6.348,1.759c-4.091,5.645-8.203,11.448-12.446,17.157c-13.577,18.258-27.114,36.55-40.886,54.665
		c-2.666,3.508-2.295,5.882,0.259,9.183c18.36,23.709,36.559,47.543,54.76,71.375c1.535,2.01,3.495,3.843,3.977,6.547
		c-1.548,2.108-3.793,1.283-5.692,1.301c-10.867,0.083-21.739-0.139-32.6,0.125c-4.215,0.101-6.753-1.224-9.167-4.708
		c-11.266-16.266-22.861-32.309-34.358-48.417c-0.63-0.882-1.426-1.646-2.56-2.94c-9.661,13.903-20.138,26.972-28.28,41.322
		c-6.751,11.904-15.058,16.715-28.671,14.868c-7.997-1.085-16.271-0.197-24.308-0.197c-0.547-3.445,1.401-4.977,2.66-6.664
		c18.253-24.464,36.51-48.927,54.979-73.231c2.382-3.132,2.202-5.121-0.035-8.08c-17.079-22.604-34.009-45.319-50.991-67.997
		c-1.085-1.45-2.657-2.65-2.451-4.861c1.704-1.976,4.111-1.213,6.233-1.23c9.743-0.081,19.496,0.255,29.224-0.129
		C620.469,752.317,624.646,753.284,627.216,758.792z"/>
	<path fill="#08496C" d="M809.033,757.465c0.01,50.264,0.02,99.994,0.019,149.722c-0.001,7.508-0.024,7.516-7.726,7.526
		c-7.864,0.012-15.741-0.264-23.589,0.093c-5.18,0.237-6.689-1.571-6.665-6.598c0.178-39.049,0.098-78.096,0.1-117.142
		c0-11.053,0.094-22.104-0.033-33.152c-0.042-3.591,0.893-5.441,5.012-5.355c9.358,0.204,18.725,0.127,28.089,0.032
		C807.395,752.562,809.354,753.425,809.033,757.465z"/>
	<g id="fdab79a77e">
		
			<linearGradient id="SVGID_2_" gradientUnits="userSpaceOnUse" x1="482.9048" y1="676.582" x2="1084.0225" y2="75.4644" gradientTransform="matrix(1 0 0 -1 -189.6602 888.04)">
			<stop  offset="0.0848" style="stop-color:#41AFE3"/>
			<stop  offset="0.2606" style="stop-color:#3C98D4"/>
			<stop  offset="1" style="stop-color:#08496C"/>
		</linearGradient>
		<path fill="url(#SVGID_2_)" d="M924.374,736.934c-22.222,0.008-44.446-0.076-66.669,0.103c-3.456,0.024-5.59-1.403-7.58-3.811
			c-27.329-33.059-54.623-66.159-82.037-99.147c-24.154-29.059-48.444-58.001-72.713-86.958c-1.476-1.763-2.598-3.979-5.647-5.038
			c-8.104,5.539-13.442,14.208-20.089,21.531c-10.461,11.534-20.07,23.842-30.627,35.287c-3.911,4.246-2.662,6.791,0.25,10.224
			c16.009,18.888,31.976,37.813,47.929,56.749c19.103,22.684,38.182,45.4,57.257,68.116c0.388,0.463,0.542,1.124,0.771,1.615
			c-0.53,1.76-1.89,1.604-3.153,1.597c-33.956-0.112-67.919-0.393-101.874-0.217c-5.926,0.031-9.884-1.71-13.587-6.247
			c-15.115-18.516-30.531-36.789-45.844-55.146c-0.666-0.8-1.417-1.524-2.316-2.479c-4.909,2.059-7.4,6.517-10.535,10.058
			c-14.848,16.771-29.465,33.742-44.038,50.751c-1.861,2.169-3.72,3.061-6.55,3.061c-36.322,0.019-72.645,0.142-108.966,0.22
			c-1.448,0.004-2.896-0.229-5.89-0.485c5.956-7.08,11.14-13.323,16.412-19.49c30.915-36.171,61.749-72.418,92.896-108.39
			c4.668-5.387,4.959-8.939,0.23-14.493c-24.21-28.452-48.095-57.188-71.967-85.928c-26.323-31.691-52.497-63.511-78.76-95.254
			c-6.94-8.386-13.92-16.745-21.013-25c-1.609-1.871-2.982-4.199-5.925-5.034c-2.613,2.109-1.526,5.094-1.53,7.629
			c-0.06,103.212-0.05,206.426-0.054,309.64c0,10.474-0.101,20.943,0.05,31.414c0.056,3.796-1.308,5.423-5.179,5.403
			c-29.061-0.163-58.117-0.224-87.177-0.337c-0.824-0.004-1.648-0.264-2.365-0.383c-1.583-2.321-0.959-4.734-0.959-7.014
			c-0.032-151.72-0.028-303.444-0.024-455.165c0-8.985,0.018-8.999,9.184-9.002c33.123-0.003,66.249,0.074,99.369-0.085
			c4.889-0.025,8.333,1.317,11.553,5.191c24.561,29.516,49.327,58.869,74.056,88.246c26.788,31.826,53.616,63.619,80.41,95.446
			c5.634,6.688,11.188,13.439,17.072,20.515c16.614,19.763,32.94,39.173,49.012,58.288c3.805-0.373,4.945-3.012,6.499-4.842
			c14.907-17.587,29.618-35.34,44.571-52.885c3.225-3.777,3.362-6.607,0.142-10.516c-24.161-29.333-48.063-58.883-72.213-88.229
			c-28.489-34.612-57.151-69.086-85.719-103.634c-1.435-1.734-4.039-3.252-2.766-5.948c1.288-2.726,4.186-1.498,6.351-1.501
			c31.198-0.078,62.399,0.018,93.596-0.12c4.629-0.022,7.797,1.242,10.882,5.012c35.416,43.265,71.095,86.312,106.533,129.558
			c3.375,4.118,5.25,4.278,8.68,0.161c20.353-24.431,40.875-48.718,61.429-72.979c16.549-19.532,33.234-38.95,49.826-58.447
			c1.773-2.082,3.761-3.244,6.599-3.242c37.607,0.05,75.22,0.032,112.829,0.072c1.205,0,2.604-0.153,3.448,1.178
			c0.629,2.06-0.986,3.113-2.058,4.328c-27.695,31.324-55.459,62.587-83.103,93.958c-22.299,25.3-44.435,50.744-66.683,76.086
			c-8.023,9.136-16.056,18.266-24.308,27.19c-3.663,3.961-0.277,11.41-0.277,11.41L849.161,593.5l120.567,143.709"/>
	</g>
</g>
</svg>
