<?xml version="1.0" encoding="utf-8"?>
<!-- Generator: Adobe Illustrator 14.0.0, SVG Export Plug-In . SVG Version: 6.00 Build 43363)  -->
<!DOCTYPE svg PUBLIC "-//W3C//DTD SVG 1.1//EN" "http://www.w3.org/Graphics/SVG/1.1/DTD/svg11.dtd">
<svg version="1.1" id="Layer_1" xmlns="http://www.w3.org/2000/svg" xmlns:xlink="http://www.w3.org/1999/xlink" x="0px" y="0px"
	 width="1200px" height="265px" viewBox="0 0 1200 265" enable-background="new 0 0 1200 265" xml:space="preserve">
<g>
	<path fill="#08496C" d="M211.07,263.7c-20.271,3.382-31.649-4.319-42.183-21.236c-32.205-51.72-66.816-101.985-100.473-152.828
		c-1.151-1.739-1.903-3.788-4.788-4.424c-2.844,2.802-1.551,6.544-1.558,9.811c-0.095,51.458-0.066,102.917-0.072,154.371
		c-0.002,14.296-0.011,14.299-14.965,14.303c-11.254,0.001-22.518-0.254-33.762,0.097c-6.458,0.204-9.251-1.646-9.238-8.533
		C4.202,173.284,4.19,91.311,4.037,9.337c-0.012-6.545,2.151-9.011,8.937-8.891c18.855,0.32,37.726,0.441,56.573-0.033
		c7.026-0.176,11.158,2.379,14.788,7.964c25.022,38.507,50.246,76.894,75.442,115.292c9.714,14.804,19.535,29.539,30.584,46.23
		c0-4.691,0-7.434,0-10.176c-0.002-49.367,0.167-98.729-0.175-148.092c-0.059-8.505,2.359-11.721,11.313-11.23
		c12.434,0.678,24.939,0.367,37.403,0.061c6.395-0.155,9.33,1.638,9.318,8.556c-0.169,81.974-0.161,163.949-0.015,245.921
		c0.012,6.46-1.954,9.22-8.854,8.878C230.248,263.367,221.105,263.703,211.07,263.7z"/>
	<path fill="#08496C" d="M1058.783,88.826c0.304,21.79-2.845,19.078,18.188,19.168c31.936,0.133,63.876,0.288,95.81-0.116
		c8.12-0.105,10.7,2.472,10.284,10.28c-0.578,10.736-0.513,21.547-0.029,32.296c0.326,7.166-2.431,9.233-9.498,9.178
		c-34.673-0.273-69.352,0.122-104.021-0.274c-8.283-0.095-11.435,2.083-10.904,10.558c0.693,11.024,0.548,22.142,0.037,33.188
		c-0.336,7.2,2.349,9.247,9.475,9.195c38.626-0.27,77.257,0.131,115.88-0.301c9.005-0.101,12.589,2.12,11.877,11.467
		c-0.813,10.712-0.366,21.531-0.116,32.294c0.13,5.64-1.837,8.02-7.865,8.008c-60.224-0.137-120.446-0.151-180.671,0.009
		c-6.556,0.019-8.205-2.655-8.196-8.59c0.119-81.968,0.132-163.933-0.031-245.899c-0.009-6.524,2.064-8.865,8.892-8.839
		c59.005,0.212,118.018,0.186,177.021,0.063c5.955-0.011,9.06,1.497,8.897,8.023c-0.312,12.855-0.246,25.722-0.063,38.587
		c0.072,5.042-1.941,6.756-7.016,6.739c-37.091-0.113-74.18-0.022-111.269-0.004c-2.738,0.002-5.488,0.113-8.209-0.094
		c-6.066-0.458-8.934,1.646-8.583,8.164C1059.135,70.576,1058.786,79.269,1058.783,88.826z"/>
	<path fill="#08496C" d="M495.726,212.186c13.432,0.128,13.453,0.128,13.481,12.217c0.026,10.471-0.152,20.948,0.069,31.415
		c0.122,5.654-1.964,7.961-7.963,7.949c-60.238-0.141-120.475-0.19-180.714,0.03c-8.637,0.034-7.94-5.101-7.94-10.626
		c0.022-67.922,0.007-135.845,0-203.767c0-13.165,0.262-26.338-0.093-39.494c-0.181-6.716,1.706-9.541,9.194-9.509
		c58.104,0.257,116.212,0.217,174.321,0.051c6.53-0.021,9.45,1.909,9.275,8.675c-0.319,12.26-0.272,24.54,0.039,36.8
		c0.159,6.191-2.019,8.218-8.49,8.184c-37.694-0.212-75.409,1.688-113.081-0.47c-9.35-0.532-12.3,2.55-11.662,11.647
		c0.793,11.32,0.503,22.74,0.078,34.096c-0.254,6.719,2.262,8.803,8.976,8.752c34.376-0.241,68.758,0.096,103.132-0.244
		c7.85-0.077,10.933,2.034,10.452,10.108c-0.639,10.733-0.51,21.551-0.02,32.302c0.323,7.105-2.328,9.374-9.44,9.323
		c-34.073-0.248-68.15,0.135-102.219-0.252c-8.222-0.092-11.487,1.964-10.937,10.505c0.708,11.024,0.543,22.147,0.041,33.193
		c-0.325,7.151,2.26,9.289,9.436,9.233C419.379,212.021,457.104,212.182,495.726,212.186z"/>
	<path fill="#08496C" d="M637.58,10.546c16.098,23.174,31.79,45.819,48.085,69.337c10.268-10.175,15.98-21.822,23.433-32.182
		c9.474-13.17,18.659-26.546,27.542-40.105c3.344-5.107,7.184-7.285,13.408-7.166c17.636,0.339,35.283,0.084,52.929,0.202
		c3.193,0.02,6.756-0.986,10.306,2.856c-6.643,9.164-13.319,18.588-20.209,27.854c-22.044,29.646-44.023,59.344-66.381,88.754
		c-4.33,5.695-3.728,9.552,0.42,14.909c29.81,38.496,59.357,77.194,88.909,115.886c2.49,3.266,5.674,6.24,6.454,10.629
		c-2.513,3.426-6.158,2.084-9.24,2.113c-17.646,0.137-35.297-0.226-52.93,0.203c-6.844,0.164-10.965-1.988-14.885-7.645
		c-18.291-26.408-37.117-52.455-55.785-78.608c-1.021-1.435-2.313-2.674-4.156-4.773c-15.683,22.571-32.693,43.788-45.913,67.091
		c-10.963,19.326-24.448,27.136-46.55,24.139c-12.984-1.763-26.417-0.321-39.468-0.321c-0.886-5.595,2.277-8.08,4.321-10.818
		c29.634-39.721,59.276-79.438,89.262-118.898c3.866-5.085,3.576-8.314-0.058-13.119c-27.729-36.701-55.217-73.584-82.789-110.403
		c-1.763-2.355-4.314-4.3-3.979-7.891c2.766-3.209,6.675-1.971,10.119-2.001c15.819-0.128,31.653,0.418,47.447-0.206
		C626.626,0.034,633.408,1.605,637.58,10.546z"/>
	<path fill="#08496C" d="M932.781,8.392c0.016,81.607,0.03,162.351,0.027,243.09c-0.001,12.189-0.037,12.203-12.541,12.219
		c-12.769,0.019-25.559-0.429-38.301,0.151c-8.409,0.384-10.86-2.551-10.819-10.714c0.288-63.398,0.158-126.795,0.159-190.19
		c0-17.944,0.153-35.888-0.053-53.825c-0.068-5.831,1.45-8.837,8.137-8.694c15.193,0.329,30.402,0.205,45.605,0.051
		C930.119,0.43,933.301,1.833,932.781,8.392z"/>
</g>
</svg>
