<?xml version="1.0" encoding="utf-8"?>
<!-- Generator: Adobe Illustrator 14.0.0, SVG Export Plug-In . SVG Version: 6.00 Build 43363)  -->
<!DOCTYPE svg PUBLIC "-//W3C//DTD SVG 1.1//EN" "http://www.w3.org/Graphics/SVG/1.1/DTD/svg11.dtd">
<svg version="1.1" id="Layer_1" xmlns="http://www.w3.org/2000/svg" xmlns:xlink="http://www.w3.org/1999/xlink" x="0px" y="0px"
	 width="800px" height="180px" viewBox="0 0 800 180" enable-background="new 0 0 800 180" xml:space="preserve">
<g>
	<path fill="#08496C" d="M144.434,176.212c-13.32,2.222-20.797-2.839-27.719-13.955C95.553,128.272,72.811,95.243,50.695,61.834
		c-0.756-1.143-1.25-2.489-3.146-2.907c-1.869,1.841-1.019,4.3-1.024,6.447C46.463,99.187,46.481,133,46.478,166.811
		c-0.001,9.395-0.007,9.396-9.834,9.398c-7.395,0-14.796-0.167-22.185,0.063c-4.243,0.134-6.079-1.081-6.07-5.607
		C8.501,116.799,8.494,62.935,8.393,9.07c-0.008-4.301,1.413-5.921,5.872-5.842c12.39,0.21,24.79,0.29,37.174-0.022
		c4.617-0.116,7.332,1.563,9.717,5.233c16.442,25.302,33.016,50.526,49.573,75.758c6.383,9.728,12.836,19.41,20.097,30.378
		c0-3.083,0-4.885,0-6.687c-0.001-32.439,0.109-64.875-0.115-97.311c-0.039-5.589,1.55-7.702,7.434-7.38
		c8.17,0.446,16.388,0.241,24.577,0.04c4.202-0.102,6.131,1.076,6.124,5.622c-0.111,53.865-0.105,107.73-0.01,161.595
		c0.008,4.245-1.284,6.058-5.818,5.834C157.036,175.993,151.028,176.213,144.434,176.212z"/>
	<path fill="#08496C" d="M701.467,61.302c0.199,14.318-1.871,12.536,11.951,12.595c20.984,0.087,41.973,0.189,62.955-0.076
		c5.336-0.069,7.031,1.625,6.758,6.755c-0.379,7.055-0.336,14.159-0.02,21.221c0.215,4.709-1.596,6.068-6.24,6.031
		c-22.783-0.18-45.57,0.081-68.352-0.18c-5.443-0.063-7.514,1.369-7.166,6.937c0.455,7.244,0.359,14.55,0.025,21.809
		c-0.221,4.731,1.543,6.076,6.225,6.042c25.381-0.177,50.766,0.086,76.145-0.197c5.918-0.066,8.273,1.393,7.805,7.535
		c-0.533,7.038-0.24,14.147-0.076,21.22c0.086,3.706-1.207,5.27-5.168,5.262c-39.574-0.09-79.146-0.1-118.719,0.006
		c-4.309,0.013-5.391-1.744-5.387-5.645c0.08-53.861,0.088-107.72-0.02-161.58c-0.006-4.287,1.357-5.825,5.842-5.808
		c38.771,0.14,77.551,0.122,116.32,0.042c3.914-0.007,5.955,0.984,5.848,5.272c-0.205,8.447-0.162,16.902-0.041,25.355
		c0.047,3.313-1.277,4.439-4.611,4.428c-24.371-0.074-48.742-0.015-73.113-0.002c-1.799,0.001-3.607,0.075-5.395-0.062
		c-3.986-0.301-5.871,1.082-5.641,5.365C701.697,49.31,701.469,55.021,701.467,61.302z"/>
	<path fill="#08496C" d="M331.481,142.361c8.826,0.084,8.839,0.084,8.858,8.027c0.018,6.881-0.1,13.765,0.046,20.644
		c0.08,3.715-1.291,5.23-5.233,5.223c-39.583-0.092-79.164-0.125-118.747,0.02c-5.675,0.022-5.217-3.352-5.217-6.981
		c0.015-44.631,0.004-89.264,0-133.896c0-8.65,0.172-17.307-0.062-25.951c-0.119-4.413,1.122-6.27,6.042-6.249
		c38.18,0.169,76.364,0.143,114.547,0.034c4.291-0.014,6.209,1.254,6.094,5.7c-0.209,8.056-0.179,16.125,0.025,24.181
		c0.104,4.068-1.327,5.4-5.578,5.377c-24.769-0.139-49.552,1.109-74.306-0.309c-6.144-0.35-8.082,1.675-7.663,7.653
		c0.521,7.439,0.331,14.943,0.051,22.404c-0.167,4.415,1.487,5.785,5.898,5.751c22.589-0.159,45.181,0.063,67.768-0.16
		c5.159-0.051,7.184,1.336,6.868,6.642c-0.419,7.053-0.335,14.161-0.013,21.225c0.212,4.67-1.53,6.16-6.203,6.127
		c-22.39-0.164-44.781,0.089-67.168-0.166c-5.402-0.06-7.548,1.29-7.187,6.903c0.465,7.243,0.357,14.552,0.027,21.811
		c-0.213,4.699,1.485,6.104,6.2,6.067C281.314,142.253,306.103,142.358,331.481,142.361z"/>
	<path fill="#08496C" d="M424.693,9.864c10.577,15.228,20.889,30.108,31.597,45.562c6.746-6.686,10.5-14.339,15.397-21.146
		c6.225-8.654,12.261-17.443,18.098-26.354c2.197-3.356,4.721-4.787,8.811-4.708c11.588,0.222,23.186,0.055,34.779,0.132
		c2.1,0.013,4.439-0.648,6.771,1.877c-4.363,6.022-8.75,12.214-13.279,18.304c-14.484,19.479-28.928,38.995-43.618,58.32
		c-2.846,3.742-2.449,6.276,0.275,9.796c19.588,25.296,39.005,50.725,58.423,76.148c1.637,2.146,3.729,4.101,4.242,6.984
		c-1.652,2.251-4.047,1.369-6.072,1.389c-11.596,0.09-23.193-0.148-34.78,0.133c-4.498,0.108-7.205-1.306-9.782-5.022
		c-12.019-17.353-24.389-34.469-36.656-51.654c-0.67-0.942-1.52-1.757-2.73-3.136c-10.305,14.831-21.482,28.772-30.169,44.085
		c-7.204,12.699-16.065,17.831-30.588,15.862c-8.532-1.158-17.359-0.212-25.935-0.212c-0.582-3.677,1.497-5.31,2.839-7.108
		c19.473-26.101,38.95-52.199,58.654-78.128c2.541-3.342,2.35-5.463-0.038-8.621c-18.221-24.116-36.282-48.352-54.4-72.546
		c-1.158-1.548-2.834-2.825-2.614-5.185c1.817-2.109,4.386-1.295,6.649-1.315c10.395-0.084,20.798,0.275,31.177-0.135
		C417.495,2.957,421.952,3.989,424.693,9.864z"/>
	<path fill="#08496C" d="M618.67,8.449c0.012,53.624,0.02,106.68,0.02,159.734c-0.002,8.01-0.025,8.019-8.242,8.029
		c-8.389,0.012-16.795-0.282-25.168,0.1c-5.525,0.252-7.135-1.677-7.109-7.04c0.189-41.66,0.105-83.317,0.105-124.975
		c0-11.791,0.102-23.582-0.035-35.369c-0.045-3.832,0.953-5.807,5.348-5.713c9.982,0.216,19.977,0.135,29.967,0.034
		C616.922,3.217,619.012,4.139,618.67,8.449z"/>
</g>
</svg>
